NotoSansSaurashtra-Regular.ufo
<glyph name="uniA882" format="2">
  <advance width="682"/>
  <unicode hex="A882"/>
  <outline>
    <contour>
      <point x="349" y="-9" type="curve" smooth="yes"/>
      <point x="520" y="-9"/>
      <point x="606" y="49"/>
      <point x="606" y="165" type="curve" smooth="yes"/>
      <point x="606" y="192"/>
      <point x="601" y="219"/>
      <point x="591" y="246" type="curve"/>
      <point x="516" y="222" type="line"/>
      <point x="523" y="209"/>
      <point x="527" y="195"/>
      <point x="527" y="174" type="curve" smooth="yes"/>
      <point x="527" y="108"/>
      <point x="477" y="71"/>
      <point x="352" y="71" type="curve" smooth="yes"/>
      <point x="242" y="71"/>
      <point x="154" y="87"/>
      <point x="154" y="179" type="curve" smooth="yes"/>
      <point x="154" y="274"/>
      <point x="216" y="283"/>
      <point x="346" y="283" type="curve" smooth="yes"/>
      <point x="408" y="283" type="line" smooth="yes"/>
      <point x="561" y="283"/>
      <point x="632" y="350"/>
      <point x="632" y="486" type="curve" smooth="yes"/>
      <point x="632" y="609"/>
      <point x="581" y="674"/>
      <point x="486" y="674" type="curve" smooth="yes"/>
      <point x="425" y="674"/>
      <point x="374" y="642"/>
      <point x="357" y="594" type="curve"/>
      <point x="336" y="647"/>
      <point x="294" y="674"/>
      <point x="229" y="674" type="curve" smooth="yes"/>
      <point x="138" y="674"/>
      <point x="79" y="613"/>
      <point x="79" y="520" type="curve" smooth="yes"/>
      <point x="79" y="469"/>
      <point x="101" y="407"/>
      <point x="136" y="360" type="curve"/>
      <point x="199" y="399" type="line"/>
      <point x="174" y="432"/>
      <point x="155" y="483"/>
      <point x="155" y="516" type="curve" smooth="yes"/>
      <point x="155" y="567"/>
      <point x="188" y="598"/>
      <point x="240" y="598" type="curve" smooth="yes"/>
      <point x="299" y="598"/>
      <point x="324" y="566"/>
      <point x="324" y="502" type="curve" smooth="yes"/>
      <point x="324" y="421" type="line"/>
      <point x="393" y="421" type="line"/>
      <point x="393" y="502" type="line" smooth="yes"/>
      <point x="393" y="565"/>
      <point x="423" y="597"/>
      <point x="484" y="597" type="curve" smooth="yes"/>
      <point x="538" y="597"/>
      <point x="565" y="561"/>
      <point x="565" y="488" type="curve" smooth="yes"/>
      <point x="565" y="389"/>
      <point x="509" y="346"/>
      <point x="392" y="346" type="curve" smooth="yes"/>
      <point x="346" y="346" type="line" smooth="yes"/>
      <point x="176" y="346"/>
      <point x="77" y="330"/>
      <point x="77" y="184" type="curve" smooth="yes"/>
      <point x="77" y="55"/>
      <point x="156" y="-9"/>
    </contour>
  </outline>
</glyph>
<glyph name="uniA883" format="2">
  <advance width="686"/>
  <unicode hex="A883"/>
  <outline>
    <contour>
      <point x="314" y="-9" type="curve" smooth="yes"/>
      <point x="429" y="-9"/>
      <point x="495" y="22"/>
      <point x="534" y="81" type="curve"/>
      <point x="561" y="28"/>
      <point x="603" y="1"/>
      <point x="661" y="1" type="curve" smooth="yes"/>
      <point x="668" y="1"/>
      <point x="675" y="1"/>
      <point x="682" y="2" type="curve"/>
      <point x="673" y="81" type="line"/>
      <point x="665" y="81" type="line" smooth="yes"/>
      <point x="606" y="81"/>
      <point x="577" y="108"/>
      <point x="576" y="163" type="curve" smooth="yes"/>
      <point x="576" y="173"/>
      <point x="577" y="183"/>
      <point x="578" y="193" type="curve"/>
      <point x="507" y="202" type="line"/>
      <point x="492" y="118"/>
      <point x="428" y="71"/>
      <point x="315" y="71" type="curve" smooth="yes"/>
      <point x="201" y="71"/>
      <point x="119" y="89"/>
      <point x="119" y="179" type="curve" smooth="yes"/>
      <point x="119" y="273"/>
      <point x="199" y="283"/>
      <point x="329" y="283" type="curve" smooth="yes"/>
      <point x="389" y="283" type="line" smooth="yes"/>
      <point x="533" y="283"/>
      <point x="602" y="350"/>
      <point x="602" y="486" type="curve" smooth="yes"/>
      <point x="602" y="614"/>
      <point x="551" y="674"/>
      <point x="455" y="674" type="curve" smooth="yes"/>
      <point x="395" y="674"/>
      <point x="344" y="643"/>
      <point x="327" y="595" type="curve"/>
      <point x="306" y="648"/>
      <point x="264" y="675"/>
      <point x="199" y="675" type="curve" smooth="yes"/>
      <point x="110" y="675"/>
      <point x="49" y="616"/>
      <point x="49" y="521" type="curve" smooth="yes"/>
      <point x="49" y="469"/>
      <point x="74" y="404"/>
      <point x="106" y="360" type="curve"/>
      <point x="169" y="399" type="line"/>
      <point x="145" y="430"/>
      <point x="125" y="482"/>
      <point x="125" y="517" type="curve" smooth="yes"/>
      <point x="125" y="568"/>
      <point x="158" y="599"/>
      <point x="210" y="599" type="curve" smooth="yes"/>
      <point x="269" y="599"/>
      <point x="294" y="567"/>
      <point x="294" y="503" type="curve" smooth="yes"/>
      <point x="294" y="421" type="line"/>
      <point x="363" y="421" type="line"/>
      <point x="363" y="503" type="line" smooth="yes"/>
      <point x="363" y="566"/>
      <point x="393" y="598"/>
      <point x="454" y="598" type="curve" smooth="yes"/>
      <point x="508" y="598"/>
      <point x="535" y="561"/>
      <point x="535" y="488" type="curve" smooth="yes"/>
      <point x="535" y="389"/>
      <point x="484" y="346"/>
      <point x="373" y="346" type="curve" smooth="yes"/>
      <point x="330" y="346" type="line" smooth="yes"/>
      <point x="157" y="346"/>
      <point x="47" y="326"/>
      <point x="47" y="184" type="curve" smooth="yes"/>
      <point x="47" y="52"/>
      <point x="123" y="-9"/>
    </contour>
  </outline>
</glyph>
<glyph name="uniA884" format="2">
  <advance width="705"/>
  <unicode hex="A884"/>
  <outline>
    <contour>
      <point x="337" y="-10" type="curve" smooth="yes"/>
      <point x="509" y="-10"/>
      <point x="646" y="71"/>
      <point x="646" y="213" type="curve" smooth="yes"/>
      <point x="646" y="272"/>
      <point x="628" y="318"/>
      <point x="577" y="380" type="curve" smooth="yes"/>
      <point x="552" y="411"/>
      <point x="532" y="435"/>
      <point x="515" y="453" type="curve" smooth="yes"/>
      <point x="485" y="484"/>
      <point x="470" y="513"/>
      <point x="470" y="540" type="curve" smooth="yes"/>
      <point x="470" y="573"/>
      <point x="491" y="594"/>
      <point x="528" y="594" type="curve" smooth="yes"/>
      <point x="563" y="594"/>
      <point x="580" y="574"/>
      <point x="580" y="533" type="curve"/>
      <point x="656" y="545" type="line"/>
      <point x="652" y="626"/>
      <point x="607" y="673"/>
      <point x="528" y="673" type="curve" smooth="yes"/>
      <point x="443" y="673"/>
      <point x="396" y="628"/>
      <point x="396" y="548" type="curve" smooth="yes"/>
      <point x="396" y="485"/>
      <point x="438" y="437"/>
      <point x="482" y="385" type="curve" smooth="yes"/>
      <point x="517" y="344" type="line" smooth="yes"/>
      <point x="557" y="297"/>
      <point x="573" y="264"/>
      <point x="573" y="227" type="curve" smooth="yes"/>
      <point x="573" y="127"/>
      <point x="481" y="71"/>
      <point x="336" y="71" type="curve" smooth="yes"/>
      <point x="185" y="71"/>
      <point x="117" y="117"/>
      <point x="117" y="209" type="curve" smooth="yes"/>
      <point x="117" y="293"/>
      <point x="178" y="332"/>
      <point x="330" y="332" type="curve"/>
      <point x="330" y="403" type="line"/>
      <point x="206" y="403"/>
      <point x="144" y="448"/>
      <point x="144" y="528" type="curve" smooth="yes"/>
      <point x="144" y="571"/>
      <point x="171" y="595"/>
      <point x="214" y="595" type="curve" smooth="yes"/>
      <point x="254" y="595"/>
      <point x="274" y="576"/>
      <point x="274" y="537" type="curve" smooth="yes"/>
      <point x="274" y="533" type="line"/>
      <point x="348" y="533" type="line"/>
      <point x="349" y="538"/>
      <point x="349" y="542"/>
      <point x="349" y="547" type="curve" smooth="yes"/>
      <point x="349" y="622"/>
      <point x="305" y="673"/>
      <point x="210" y="673" type="curve" smooth="yes"/>
      <point x="125" y="673"/>
      <point x="68" y="617"/>
      <point x="68" y="529" type="curve" smooth="yes"/>
      <point x="68" y="445"/>
      <point x="118" y="388"/>
      <point x="205" y="371" type="curve"/>
      <point x="98" y="363"/>
      <point x="42" y="306"/>
      <point x="42" y="205" type="curve" smooth="yes"/>
      <point x="42" y="68"/>
      <point x="153" y="-10"/>
    </contour>
  </outline>
</glyph>
<glyph name="uniA889" format="2">
  <advance width="677"/>
  <unicode hex="A889"/>
  <outline>
    <contour>
      <point x="283" y="-11" type="curve" smooth="yes"/>
      <point x="390" y="-11"/>
      <point x="470" y="21"/>
      <point x="529" y="93" type="curve"/>
      <point x="548" y="25"/>
      <point x="591" y="-3"/>
      <point x="667" y="-3" type="curve" smooth="yes"/>
      <point x="689" y="-3" type="line"/>
      <point x="679" y="76" type="line"/>
      <point x="666" y="76" type="line" smooth="yes"/>
      <point x="607" y="76"/>
      <point x="577" y="108"/>
      <point x="577" y="172" type="curve" smooth="yes"/>
      <point x="577" y="181" type="line"/>
      <point x="514" y="196" type="line"/>
      <point x="475" y="115"/>
      <point x="403" y="70"/>
      <point x="283" y="70" type="curve" smooth="yes"/>
      <point x="164" y="70"/>
      <point x="117" y="102"/>
      <point x="117" y="181" type="curve" smooth="yes"/>
      <point x="117" y="242"/>
      <point x="156" y="266"/>
      <point x="265" y="266" type="curve" smooth="yes"/>
      <point x="378" y="266" type="line" smooth="yes"/>
      <point x="569" y="266"/>
      <point x="629" y="340"/>
      <point x="629" y="509" type="curve" smooth="yes"/>
      <point x="629" y="610"/>
      <point x="589" y="673"/>
      <point x="514" y="673" type="curve" smooth="yes"/>
      <point x="470" y="673"/>
      <point x="432" y="647"/>
      <point x="381" y="584" type="curve" smooth="yes"/>
      <point x="328" y="518"/>
      <point x="288" y="476"/>
      <point x="264" y="457" type="curve" smooth="yes"/>
      <point x="241" y="438"/>
      <point x="216" y="428"/>
      <point x="190" y="428" type="curve" smooth="yes"/>
      <point x="133" y="428"/>
      <point x="104" y="461"/>
      <point x="104" y="528" type="curve" smooth="yes"/>
      <point x="104" y="573"/>
      <point x="125" y="596"/>
      <point x="164" y="596" type="curve" smooth="yes"/>
      <point x="204" y="596"/>
      <point x="213" y="574"/>
      <point x="213" y="539" type="curve" smooth="yes"/>
      <point x="213" y="531" type="line"/>
      <point x="285" y="531" type="line"/>
      <point x="285" y="552" type="line" smooth="yes"/>
      <point x="285" y="625"/>
      <point x="239" y="669"/>
      <point x="164" y="669" type="curve" smooth="yes"/>
      <point x="84" y="669"/>
      <point x="30" y="614"/>
      <point x="30" y="529" type="curve" smooth="yes"/>
      <point x="30" y="425"/>
      <point x="85" y="365"/>
      <point x="189" y="365" type="curve" smooth="yes"/>
      <point x="242" y="365"/>
      <point x="283" y="383"/>
      <point x="320" y="415" type="curve" smooth="yes"/>
      <point x="339" y="432"/>
      <point x="370" y="466"/>
      <point x="411" y="519" type="curve" smooth="yes"/>
      <point x="450" y="570"/>
      <point x="475" y="594"/>
      <point x="502" y="594" type="curve" smooth="yes"/>
      <point x="538" y="594"/>
      <point x="555" y="572"/>
      <point x="555" y="505" type="curve" smooth="yes"/>
      <point x="555" y="378"/>
      <point x="501" y="330"/>
      <point x="364" y="330" type="curve" smooth="yes"/>
      <point x="251" y="330" type="line" smooth="yes"/>
      <point x="157" y="330"/>
      <point x="105" y="317"/>
      <point x="76" y="286" type="curve" smooth="yes"/>
      <point x="54" y="263"/>
      <point x="43" y="215"/>
      <point x="43" y="180" type="curve" smooth="yes"/>
      <point x="43" y="52"/>
      <point x="123" y="-11"/>
    </contour>
  </outline>
</glyph>
<glyph name="uniA88A" format="2">
  <advance width="827"/>
  <unicode hex="A88A"/>
  <outline>
    <contour>
      <point x="548" y="-9" type="curve" smooth="yes"/>
      <point x="704" y="-9"/>
      <point x="782" y="118"/>
      <point x="782" y="373" type="curve" smooth="yes"/>
      <point x="782" y="568"/>
      <point x="711" y="673"/>
      <point x="590" y="673" type="curve" smooth="yes"/>
      <point x="499" y="673"/>
      <point x="440" y="628"/>
      <point x="412" y="538" type="curve"/>
      <point x="409" y="537" type="line"/>
      <point x="388" y="628"/>
      <point x="332" y="673"/>
      <point x="240" y="673" type="curve" smooth="yes"/>
      <point x="109" y="673"/>
      <point x="41" y="565"/>
      <point x="41" y="372" type="curve" smooth="yes"/>
      <point x="41" y="132"/>
      <point x="130" y="-2"/>
      <point x="297" y="-5" type="curve"/>
      <point x="297" y="78" type="line"/>
      <point x="176" y="81"/>
      <point x="117" y="172"/>
      <point x="117" y="373" type="curve" smooth="yes"/>
      <point x="117" y="520"/>
      <point x="161" y="593"/>
      <point x="248" y="593" type="curve" smooth="yes"/>
      <point x="333" y="593"/>
      <point x="372" y="516"/>
      <point x="373" y="349" type="curve"/>
      <point x="450" y="349" type="line"/>
      <point x="452" y="509"/>
      <point x="489" y="593"/>
      <point x="585" y="593" type="curve" smooth="yes"/>
      <point x="670" y="593"/>
      <point x="709" y="516"/>
      <point x="709" y="373" type="curve" smooth="yes"/>
      <point x="709" y="177"/>
      <point x="650" y="71"/>
      <point x="539" y="71" type="curve" smooth="yes"/>
      <point x="486" y="71"/>
      <point x="457" y="92"/>
      <point x="457" y="128" type="curve" smooth="yes"/>
      <point x="457" y="164"/>
      <point x="477" y="182"/>
      <point x="537" y="182" type="curve" smooth="yes"/>
      <point x="580" y="182" type="line"/>
      <point x="590" y="251" type="line"/>
      <point x="318" y="251" type="line"/>
      <point x="308" y="182" type="line"/>
      <point x="415" y="182" type="line"/>
      <point x="398" y="165"/>
      <point x="389" y="145"/>
      <point x="389" y="117" type="curve" smooth="yes"/>
      <point x="389" y="34"/>
      <point x="466" y="-9"/>
    </contour>
  </outline>
</glyph>
<glyph name="uniA88B" format="2">
  <advance width="830"/>
  <unicode hex="A88B"/>
  <outline>
    <contour>
      <point x="522" y="-251" type="curve" smooth="yes"/>
      <point x="629" y="-251"/>
      <point x="690" y="-204"/>
      <point x="690" y="-120" type="curve" smooth="yes"/>
      <point x="690" y="-60"/>
      <point x="657" y="-15"/>
      <point x="597" y="-3" type="curve"/>
      <point x="717" y="22"/>
      <point x="782" y="156"/>
      <point x="782" y="373" type="curve" smooth="yes"/>
      <point x="782" y="568"/>
      <point x="711" y="673"/>
      <point x="590" y="673" type="curve" smooth="yes"/>
      <point x="499" y="673"/>
      <point x="440" y="628"/>
      <point x="412" y="538" type="curve"/>
      <point x="409" y="537" type="line"/>
      <point x="388" y="628"/>
      <point x="332" y="673"/>
      <point x="240" y="673" type="curve" smooth="yes"/>
      <point x="109" y="673"/>
      <point x="41" y="565"/>
      <point x="41" y="372" type="curve" smooth="yes"/>
      <point x="41" y="132"/>
      <point x="130" y="-2"/>
      <point x="297" y="-5" type="curve"/>
      <point x="297" y="78" type="line"/>
      <point x="176" y="81"/>
      <point x="117" y="172"/>
      <point x="117" y="373" type="curve" smooth="yes"/>
      <point x="117" y="520"/>
      <point x="161" y="593"/>
      <point x="248" y="593" type="curve" smooth="yes"/>
      <point x="333" y="593"/>
      <point x="372" y="516"/>
      <point x="373" y="349" type="curve"/>
      <point x="450" y="349" type="line"/>
      <point x="452" y="509"/>
      <point x="489" y="593"/>
      <point x="585" y="593" type="curve" smooth="yes"/>
      <point x="670" y="593"/>
      <point x="709" y="516"/>
      <point x="709" y="373" type="curve" smooth="yes"/>
      <point x="709" y="176"/>
      <point x="650" y="64"/>
      <point x="539" y="64" type="curve" smooth="yes"/>
      <point x="490" y="64"/>
      <point x="457" y="91"/>
      <point x="457" y="128" type="curve" smooth="yes"/>
      <point x="457" y="164"/>
      <point x="477" y="182"/>
      <point x="537" y="182" type="curve" smooth="yes"/>
      <point x="580" y="182" type="line"/>
      <point x="590" y="251" type="line"/>
      <point x="318" y="251" type="line"/>
      <point x="308" y="182" type="line"/>
      <point x="415" y="182" type="line"/>
      <point x="398" y="165"/>
      <point x="389" y="145"/>
      <point x="389" y="122" type="curve" smooth="yes"/>
      <point x="389" y="51"/>
      <point x="437" y="4"/>
      <point x="518" y="-7" type="curve"/>
      <point x="466" y="-22"/>
      <point x="450" y="-59"/>
      <point x="450" y="-94" type="curve" smooth="yes"/>
      <point x="450" y="-100"/>
      <point x="450" y="-106"/>
      <point x="451" y="-112" type="curve"/>
      <point x="522" y="-112" type="line"/>
      <point x="521" y="-109"/>
      <point x="521" y="-107"/>
      <point x="521" y="-104" type="curve" smooth="yes"/>
      <point x="521" y="-77"/>
      <point x="539" y="-59"/>
      <point x="566" y="-59" type="curve" smooth="yes"/>
      <point x="594" y="-59"/>
      <point x="612" y="-78"/>
      <point x="612" y="-111" type="curve" smooth="yes"/>
      <point x="612" y="-158"/>
      <point x="576" y="-184"/>
      <point x="519" y="-184" type="curve" smooth="yes"/>
      <point x="454" y="-184"/>
      <point x="380" y="-144"/>
      <point x="313" y="-68" type="curve"/>
      <point x="262" y="-117" type="line"/>
      <point x="342" y="-206"/>
      <point x="429" y="-251"/>
    </contour>
  </outline>
</glyph>
<glyph name="uniA88F" format="2">
  <advance width="636"/>
  <unicode hex="A88F"/>
  <outline>
    <contour>
      <point x="348" y="-12" type="curve" smooth="yes"/>
      <point x="491" y="-12"/>
      <point x="576" y="49"/>
      <point x="576" y="154" type="curve" smooth="yes"/>
      <point x="576" y="229"/>
      <point x="530" y="269"/>
      <point x="438" y="269" type="curve"/>
      <point x="438" y="273" type="line"/>
      <point x="514" y="282"/>
      <point x="547" y="318"/>
      <point x="547" y="398" type="curve" smooth="yes"/>
      <point x="547" y="478"/>
      <point x="486" y="528"/>
      <point x="390" y="528" type="curve" smooth="yes"/>
      <point x="298" y="528"/>
      <point x="234" y="479"/>
      <point x="229" y="399" type="curve"/>
      <point x="308" y="391" type="line"/>
      <point x="313" y="435"/>
      <point x="340" y="457"/>
      <point x="390" y="457" type="curve" smooth="yes"/>
      <point x="445" y="457"/>
      <point x="473" y="435"/>
      <point x="473" y="392" type="curve" smooth="yes"/>
      <point x="473" y="363"/>
      <point x="461" y="341"/>
      <point x="438" y="328" type="curve" smooth="yes"/>
      <point x="415" y="315"/>
      <point x="373" y="309"/>
      <point x="309" y="308" type="curve"/>
      <point x="309" y="237" type="line"/>
      <point x="370" y="237"/>
      <point x="412" y="235"/>
      <point x="435" y="231" type="curve" smooth="yes"/>
      <point x="479" y="223"/>
      <point x="497" y="206"/>
      <point x="497" y="162" type="curve" smooth="yes"/>
      <point x="497" y="102"/>
      <point x="445" y="68"/>
      <point x="345" y="68" type="curve" smooth="yes"/>
      <point x="197" y="68"/>
      <point x="115" y="163"/>
      <point x="115" y="336" type="curve" smooth="yes"/>
      <point x="115" y="508"/>
      <point x="210" y="609"/>
      <point x="358" y="609" type="curve" smooth="yes"/>
      <point x="431" y="609"/>
      <point x="486" y="590"/>
      <point x="539" y="549" type="curve"/>
      <point x="582" y="612" type="line"/>
      <point x="519" y="661"/>
      <point x="443" y="685"/>
      <point x="354" y="685" type="curve" smooth="yes"/>
      <point x="165" y="685"/>
      <point x="41" y="555"/>
      <point x="41" y="334" type="curve" smooth="yes"/>
      <point x="41" y="115"/>
      <point x="160" y="-12"/>
    </contour>
  </outline>
</glyph>
<glyph name="uniA890" format="2">
  <advance width="807"/>
  <unicode hex="A890"/>
  <outline>
    <contour>
      <point x="354" y="-9" type="curve" smooth="yes"/>
      <point x="498" y="-9"/>
      <point x="587" y="51"/>
      <point x="587" y="151" type="curve" smooth="yes"/>
      <point x="587" y="231"/>
      <point x="548" y="269"/>
      <point x="453" y="269" type="curve"/>
      <point x="453" y="273" type="line"/>
      <point x="522" y="281"/>
      <point x="557" y="319"/>
      <point x="557" y="398" type="curve" smooth="yes"/>
      <point x="557" y="478"/>
      <point x="495" y="528"/>
      <point x="400" y="528" type="curve" smooth="yes"/>
      <point x="309" y="528"/>
      <point x="246" y="479"/>
      <point x="239" y="399" type="curve"/>
      <point x="318" y="391" type="line"/>
      <point x="324" y="435"/>
      <point x="351" y="457"/>
      <point x="400" y="457" type="curve" smooth="yes"/>
      <point x="455" y="457"/>
      <point x="483" y="436"/>
      <point x="483" y="393" type="curve" smooth="yes"/>
      <point x="483" y="319"/>
      <point x="426" y="312"/>
      <point x="326" y="309" type="curve"/>
      <point x="326" y="236" type="line"/>
      <point x="385" y="235"/>
      <point x="426" y="232"/>
      <point x="447" y="228" type="curve" smooth="yes"/>
      <point x="490" y="220"/>
      <point x="507" y="198"/>
      <point x="507" y="155" type="curve" smooth="yes"/>
      <point x="507" y="102"/>
      <point x="449" y="71"/>
      <point x="353" y="71" type="curve" smooth="yes"/>
      <point x="214" y="71"/>
      <point x="128" y="165"/>
      <point x="128" y="303" type="curve" smooth="yes"/>
      <point x="128" y="382"/>
      <point x="147" y="445"/>
      <point x="200" y="505" type="curve" smooth="yes"/>
      <point x="254" y="567"/>
      <point x="338" y="605"/>
      <point x="432" y="605" type="curve" smooth="yes"/>
      <point x="581" y="605"/>
      <point x="659" y="526"/>
      <point x="659" y="373" type="curve" smooth="yes"/>
      <point x="659" y="0" type="line"/>
      <point x="740" y="0" type="line"/>
      <point x="740" y="373" type="line" smooth="yes"/>
      <point x="740" y="572"/>
      <point x="636" y="680"/>
      <point x="437" y="680" type="curve" smooth="yes"/>
      <point x="221" y="680"/>
      <point x="54" y="534"/>
      <point x="54" y="303" type="curve" smooth="yes"/>
      <point x="54" y="115"/>
      <point x="179" y="-9"/>
    </contour>
  </outline>
</glyph>
<glyph name="uniA892" format="2">
  <advance width="620"/>
  <unicode hex="A892"/>
  <outline>
    <contour>
      <point x="539" y="-8" type="line"/>
      <point x="554" y="60"/>
      <point x="570" y="282"/>
      <point x="570" y="369" type="curve" smooth="yes"/>
      <point x="570" y="483"/>
      <point x="567" y="579"/>
      <point x="535" y="626" type="curve" smooth="yes"/>
      <point x="517" y="652"/>
      <point x="490" y="667"/>
      <point x="450" y="667" type="curve" smooth="yes"/>
      <point x="415" y="667"/>
      <point x="373" y="641"/>
      <point x="312" y="593" type="curve" smooth="yes"/>
      <point x="260" y="552" type="line"/>
      <point x="260" y="625"/>
      <point x="215" y="672"/>
      <point x="147" y="672" type="curve" smooth="yes"/>
      <point x="66" y="672"/>
      <point x="21" y="625"/>
      <point x="21" y="548" type="curve" smooth="yes"/>
      <point x="21" y="463"/>
      <point x="68" y="416"/>
      <point x="149" y="416" type="curve" smooth="yes"/>
      <point x="163" y="416"/>
      <point x="177" y="418"/>
      <point x="190" y="423" type="curve"/>
      <point x="190" y="0" type="line"/>
      <point x="265" y="0" type="line"/>
      <point x="265" y="467" type="line"/>
      <point x="321" y="514"/>
      <point x="357" y="543"/>
      <point x="372" y="554" type="curve" smooth="yes"/>
      <point x="393" y="570"/>
      <point x="421" y="586"/>
      <point x="446" y="586" type="curve" smooth="yes"/>
      <point x="464" y="586"/>
      <point x="477" y="571"/>
      <point x="485" y="542" type="curve" smooth="yes"/>
      <point x="493" y="513"/>
      <point x="498" y="456"/>
      <point x="498" y="369" type="curve" smooth="yes"/>
      <point x="498" y="276"/>
      <point x="485" y="78"/>
      <point x="469" y="6" type="curve"/>
    </contour>
    <contour>
      <point x="149" y="488" type="curve" smooth="yes"/>
      <point x="110" y="488"/>
      <point x="93" y="509"/>
      <point x="93" y="552" type="curve" smooth="yes"/>
      <point x="93" y="577"/>
      <point x="108" y="600"/>
      <point x="143" y="600" type="curve" smooth="yes"/>
      <point x="179" y="600"/>
      <point x="190" y="576"/>
      <point x="190" y="525" type="curve" smooth="yes"/>
      <point x="190" y="499" type="line"/>
      <point x="175" y="492"/>
      <point x="161" y="488"/>
    </contour>
  </outline>
</glyph>
<glyph name="uniA896" format="2">
  <advance width="680"/>
  <unicode hex="A896"/>
  <outline>
    <contour>
      <point x="296" y="-9" type="curve"/>
      <point x="300" y="71" type="line"/>
      <point x="177" y="71"/>
      <point x="119" y="125"/>
      <point x="119" y="224" type="curve" smooth="yes"/>
      <point x="119" y="249"/>
      <point x="125" y="273"/>
      <point x="138" y="296" type="curve"/>
      <point x="183" y="268"/>
      <point x="226" y="254"/>
      <point x="266" y="254" type="curve" smooth="yes"/>
      <point x="335" y="254"/>
      <point x="377" y="291"/>
      <point x="377" y="356" type="curve" smooth="yes"/>
      <point x="377" y="427"/>
      <point x="339" y="466"/>
      <point x="268" y="466" type="curve" smooth="yes"/>
      <point x="217" y="466"/>
      <point x="177" y="449"/>
      <point x="136" y="417" type="curve"/>
      <point x="128" y="434"/>
      <point x="124" y="451"/>
      <point x="124" y="469" type="curve" smooth="yes"/>
      <point x="124" y="548"/>
      <point x="201" y="595"/>
      <point x="320" y="595" type="curve" smooth="yes"/>
      <point x="481" y="595"/>
      <point x="549" y="510"/>
      <point x="549" y="321" type="curve" smooth="yes"/>
      <point x="549" y="173"/>
      <point x="497" y="83"/>
      <point x="398" y="71" type="curve"/>
      <point x="403" y="-9" type="line"/>
      <point x="543" y="-4"/>
      <point x="624" y="116"/>
      <point x="624" y="319" type="curve" smooth="yes"/>
      <point x="624" y="551"/>
      <point x="521" y="672"/>
      <point x="321" y="672" type="curve" smooth="yes"/>
      <point x="162" y="672"/>
      <point x="50" y="599"/>
      <point x="50" y="478" type="curve" smooth="yes"/>
      <point x="50" y="432"/>
      <point x="63" y="393"/>
      <point x="89" y="352" type="curve"/>
      <point x="61" y="309"/>
      <point x="47" y="264"/>
      <point x="47" y="217" type="curve" smooth="yes"/>
      <point x="47" y="125"/>
      <point x="85" y="58"/>
      <point x="165" y="19" type="curve" smooth="yes"/>
      <point x="205" y="0"/>
      <point x="249" y="-9"/>
    </contour>
    <contour>
      <point x="261" y="324" type="curve" smooth="yes"/>
      <point x="230" y="324"/>
      <point x="201" y="334"/>
      <point x="174" y="355" type="curve"/>
      <point x="203" y="382"/>
      <point x="232" y="396"/>
      <point x="263" y="396" type="curve" smooth="yes"/>
      <point x="292" y="396"/>
      <point x="307" y="383"/>
      <point x="307" y="360" type="curve" smooth="yes"/>
      <point x="307" y="333"/>
      <point x="285" y="324"/>
    </contour>
  </outline>
</glyph>
<glyph name="uniA897" format="2">
  <advance width="682"/>
  <unicode hex="A897"/>
  <outline>
    <contour>
      <point x="315" y="-20" type="curve" smooth="yes"/>
      <point x="513" y="-20"/>
      <point x="639" y="113"/>
      <point x="639" y="336" type="curve" smooth="yes"/>
      <point x="639" y="548"/>
      <point x="561" y="673"/>
      <point x="428" y="673" type="curve"/>
      <point x="428" y="595" type="line"/>
      <point x="528" y="584"/>
      <point x="567" y="498"/>
      <point x="567" y="338" type="curve" smooth="yes"/>
      <point x="567" y="254"/>
      <point x="545" y="186"/>
      <point x="500" y="135" type="curve" smooth="yes"/>
      <point x="455" y="84"/>
      <point x="396" y="58"/>
      <point x="323" y="58" type="curve" smooth="yes"/>
      <point x="179" y="58"/>
      <point x="114" y="105"/>
      <point x="114" y="197" type="curve" smooth="yes"/>
      <point x="114" y="242"/>
      <point x="141" y="281"/>
      <point x="196" y="326" type="curve" smooth="yes"/>
      <point x="239" y="361" type="line"/>
      <point x="420" y="361" type="line"/>
      <point x="439" y="426" type="line"/>
      <point x="319" y="426" type="line"/>
      <point x="362" y="462"/>
      <point x="378" y="498"/>
      <point x="378" y="543" type="curve" smooth="yes"/>
      <point x="378" y="622"/>
      <point x="316" y="676"/>
      <point x="241" y="676" type="curve" smooth="yes"/>
      <point x="146" y="676"/>
      <point x="87" y="629"/>
      <point x="87" y="549" type="curve" smooth="yes"/>
      <point x="87" y="520"/>
      <point x="104" y="482"/>
      <point x="128" y="458" type="curve"/>
      <point x="185" y="508" type="line"/>
      <point x="173" y="522"/>
      <point x="167" y="536"/>
      <point x="167" y="551" type="curve" smooth="yes"/>
      <point x="167" y="580"/>
      <point x="195" y="603"/>
      <point x="232" y="603" type="curve" smooth="yes"/>
      <point x="277" y="603"/>
      <point x="301" y="582"/>
      <point x="301" y="543" type="curve" smooth="yes"/>
      <point x="301" y="507"/>
      <point x="278" y="470"/>
      <point x="219" y="426" type="curve"/>
      <point x="46" y="426" type="line"/>
      <point x="27" y="361" type="line"/>
      <point x="132" y="361" type="line"/>
      <point x="65" y="306"/>
      <point x="40" y="258"/>
      <point x="40" y="197" type="curve" smooth="yes"/>
      <point x="40" y="109"/>
      <point x="84" y="46"/>
      <point x="172" y="8" type="curve" smooth="yes"/>
      <point x="216" y="-11"/>
      <point x="264" y="-20"/>
    </contour>
  </outline>
</glyph>
<glyph name="uniA899" format="2">
  <advance width="855"/>
  <unicode hex="A899"/>
  <outline>
    <contour>
      <point x="263" y="-10" type="curve" smooth="yes"/>
      <point x="356" y="-10"/>
      <point x="412" y="59"/>
      <point x="412" y="162" type="curve" smooth="yes"/>
      <point x="412" y="258"/>
      <point x="364" y="311"/>
      <point x="269" y="311" type="curve" smooth="yes"/>
      <point x="219" y="311"/>
      <point x="174" y="294"/>
      <point x="133" y="261" type="curve"/>
      <point x="130" y="286"/>
      <point x="128" y="323"/>
      <point x="128" y="371" type="curve" smooth="yes"/>
      <point x="128" y="522"/>
      <point x="171" y="595"/>
      <point x="266" y="595" type="curve" smooth="yes"/>
      <point x="350" y="595"/>
      <point x="393" y="510"/>
      <point x="395" y="341" type="curve"/>
      <point x="479" y="341" type="line"/>
      <point x="480" y="508"/>
      <point x="520" y="595"/>
      <point x="611" y="595" type="curve" smooth="yes"/>
      <point x="691" y="595"/>
      <point x="726" y="521"/>
      <point x="726" y="373" type="curve" smooth="yes"/>
      <point x="726" y="197"/>
      <point x="652" y="88"/>
      <point x="524" y="83" type="curve"/>
      <point x="524" y="-4" type="line"/>
      <point x="709" y="2"/>
      <point x="797" y="162"/>
      <point x="797" y="373" type="curve" smooth="yes"/>
      <point x="797" y="565"/>
      <point x="731" y="674"/>
      <point x="614" y="674" type="curve" smooth="yes"/>
      <point x="525" y="674"/>
      <point x="466" y="629"/>
      <point x="438" y="538" type="curve"/>
      <point x="435" y="537" type="line"/>
      <point x="416" y="625"/>
      <point x="357" y="674"/>
      <point x="260" y="674" type="curve" smooth="yes"/>
      <point x="124" y="674"/>
      <point x="55" y="570"/>
      <point x="55" y="375" type="curve" smooth="yes"/>
      <point x="55" y="128"/>
      <point x="130" y="-10"/>
    </contour>
    <contour>
      <point x="260" y="68" type="curve" smooth="yes"/>
      <point x="208" y="68"/>
      <point x="161" y="116"/>
      <point x="152" y="181" type="curve"/>
      <point x="181" y="216"/>
      <point x="226" y="239"/>
      <point x="269" y="239" type="curve" smooth="yes"/>
      <point x="316" y="239"/>
      <point x="339" y="212"/>
      <point x="339" y="159" type="curve" smooth="yes"/>
      <point x="339" y="102"/>
      <point x="311" y="68"/>
    </contour>
  </outline>
</glyph>
<glyph name="uniA89B" format="2">
  <advance width="819"/>
  <unicode hex="A89B"/>
  <outline>
    <contour>
      <point x="455" y="-9" type="curve" smooth="yes"/>
      <point x="594" y="-9"/>
      <point x="691" y="93"/>
      <point x="711" y="265" type="curve"/>
      <point x="792" y="265" type="line"/>
      <point x="802" y="338" type="line"/>
      <point x="716" y="338" type="line"/>
      <point x="715" y="571"/>
      <point x="563" y="684"/>
      <point x="390" y="684" type="curve" smooth="yes"/>
      <point x="182" y="684"/>
      <point x="54" y="538"/>
      <point x="54" y="296" type="curve" smooth="yes"/>
      <point x="54" y="188"/>
      <point x="78" y="88"/>
      <point x="126" y="-3" type="curve"/>
      <point x="199" y="31" type="line"/>
      <point x="154" y="117"/>
      <point x="132" y="203"/>
      <point x="132" y="289" type="curve" smooth="yes"/>
      <point x="132" y="488"/>
      <point x="221" y="609"/>
      <point x="389" y="609" type="curve" smooth="yes"/>
      <point x="538" y="609"/>
      <point x="642" y="510"/>
      <point x="642" y="338" type="curve"/>
      <point x="489" y="338" type="line"/>
      <point x="499" y="357"/>
      <point x="504" y="376"/>
      <point x="504" y="396" type="curve" smooth="yes"/>
      <point x="504" y="479"/>
      <point x="455" y="532"/>
      <point x="368" y="532" type="curve" smooth="yes"/>
      <point x="292" y="532"/>
      <point x="233" y="482"/>
      <point x="233" y="401" type="curve" smooth="yes"/>
      <point x="233" y="322"/>
      <point x="278" y="272"/>
      <point x="349" y="265" type="curve"/>
      <point x="318" y="221"/>
      <point x="294" y="185"/>
      <point x="294" y="140" type="curve" smooth="yes"/>
      <point x="294" y="47"/>
      <point x="363" y="-9"/>
    </contour>
    <contour>
      <point x="455" y="70" type="curve" smooth="yes"/>
      <point x="406" y="70"/>
      <point x="374" y="97"/>
      <point x="374" y="145" type="curve" smooth="yes"/>
      <point x="374" y="178"/>
      <point x="387" y="208"/>
      <point x="440" y="265" type="curve"/>
      <point x="639" y="265" type="line"/>
      <point x="622" y="145"/>
      <point x="551" y="70"/>
    </contour>
    <contour>
      <point x="368" y="338" type="line" smooth="yes"/>
      <point x="329" y="338"/>
      <point x="308" y="361"/>
      <point x="308" y="400" type="curve" smooth="yes"/>
      <point x="308" y="436"/>
      <point x="334" y="459"/>
      <point x="371" y="459" type="curve" smooth="yes"/>
      <point x="412" y="459"/>
      <point x="431" y="433"/>
      <point x="431" y="397" type="curve" smooth="yes"/>
      <point x="431" y="377"/>
      <point x="424" y="357"/>
      <point x="409" y="338" type="curve"/>
    </contour>
  </outline>
</glyph>
<glyph name="uniA89C" format="2">
  <advance width="607"/>
  <unicode hex="A89C"/>
  <outline>
    <contour>
      <point x="299" y="-11" type="curve" smooth="yes"/>
      <point x="452" y="-11"/>
      <point x="555" y="91"/>
      <point x="555" y="252" type="curve" smooth="yes"/>
      <point x="555" y="412"/>
      <point x="469" y="523"/>
      <point x="292" y="592" type="curve"/>
      <point x="533" y="592" type="line"/>
      <point x="552" y="666" type="line"/>
      <point x="88" y="666" type="line"/>
      <point x="72" y="599" type="line"/>
      <point x="348" y="546"/>
      <point x="480" y="433"/>
      <point x="480" y="254" type="curve" smooth="yes"/>
      <point x="480" y="141"/>
      <point x="410" y="69"/>
      <point x="299" y="69" type="curve" smooth="yes"/>
      <point x="192" y="69"/>
      <point x="125" y="132"/>
      <point x="125" y="240" type="curve" smooth="yes"/>
      <point x="125" y="335"/>
      <point x="161" y="380"/>
      <point x="238" y="380" type="curve" smooth="yes"/>
      <point x="287" y="380"/>
      <point x="311" y="357"/>
      <point x="311" y="310" type="curve"/>
      <point x="399" y="310" type="line"/>
      <point x="398" y="399"/>
      <point x="333" y="456"/>
      <point x="236" y="456" type="curve" smooth="yes"/>
      <point x="113" y="456"/>
      <point x="45" y="379"/>
      <point x="45" y="240" type="curve" smooth="yes"/>
      <point x="45" y="88"/>
      <point x="153" y="-11"/>
    </contour>
  </outline>
</glyph>
<glyph name="uniA89D" format="2">
  <advance width="664"/>
  <unicode hex="A89D"/>
  <outline>
    <contour>
      <point x="330" y="-9" type="curve" smooth="yes"/>
      <point x="519" y="-9"/>
      <point x="616" y="107"/>
      <point x="616" y="327" type="curve" smooth="yes"/>
      <point x="616" y="551"/>
      <point x="517" y="672"/>
      <point x="330" y="672" type="curve" smooth="yes"/>
      <point x="145" y="672"/>
      <point x="45" y="552"/>
      <point x="45" y="327" type="curve" smooth="yes"/>
      <point x="45" y="106"/>
      <point x="142" y="-9"/>
    </contour>
    <contour>
      <point x="330" y="74" type="curve" smooth="yes"/>
      <point x="190" y="74"/>
      <point x="120" y="158"/>
      <point x="120" y="327" type="curve" smooth="yes"/>
      <point x="120" y="505"/>
      <point x="190" y="594"/>
      <point x="330" y="594" type="curve" smooth="yes"/>
      <point x="471" y="594"/>
      <point x="541" y="505"/>
      <point x="541" y="327" type="curve" smooth="yes"/>
      <point x="541" y="158"/>
      <point x="471" y="74"/>
    </contour>
  </outline>
</glyph>
<glyph name="uniA8A1" format="2">
  <advance width="582"/>
  <unicode hex="A8A1"/>
  <outline>
    <contour>
      <point x="330" y="-2" type="curve" smooth="yes"/>
      <point x="343" y="-2" type="line"/>
      <point x="337" y="82" type="line"/>
      <point x="208" y="82"/>
      <point x="139" y="169"/>
      <point x="139" y="340" type="curve" smooth="yes"/>
      <point x="139" y="508"/>
      <point x="197" y="595"/>
      <point x="312" y="595" type="curve" smooth="yes"/>
      <point x="397" y="595"/>
      <point x="439" y="544"/>
      <point x="439" y="443" type="curve" smooth="yes"/>
      <point x="439" y="0" type="line"/>
      <point x="517" y="0" type="line"/>
      <point x="517" y="449" type="line" smooth="yes"/>
      <point x="517" y="594"/>
      <point x="443" y="674"/>
      <point x="311" y="674" type="curve" smooth="yes"/>
      <point x="150" y="674"/>
      <point x="63" y="556"/>
      <point x="63" y="339" type="curve" smooth="yes"/>
      <point x="63" y="128"/>
      <point x="160" y="-2"/>
    </contour>
  </outline>
</glyph>
<glyph name="uniA8A2" format="2">
  <advance width="619"/>
  <unicode hex="A8A2"/>
  <outline>
    <contour>
      <point x="316" y="-5" type="curve" smooth="yes"/>
      <point x="391" y="-5"/>
      <point x="447" y="45"/>
      <point x="447" y="120" type="curve" smooth="yes"/>
      <point x="447" y="180"/>
      <point x="417" y="219"/>
      <point x="338" y="244" type="curve"/>
      <point x="555" y="477" type="line" smooth="yes"/>
      <point x="588" y="513"/>
      <point x="601" y="541"/>
      <point x="601" y="578" type="curve" smooth="yes"/>
      <point x="601" y="641"/>
      <point x="562" y="674"/>
      <point x="495" y="674" type="curve" smooth="yes"/>
      <point x="366" y="674" type="line"/>
      <point x="366" y="600" type="line"/>
      <point x="475" y="600" type="line" smooth="yes"/>
      <point x="512" y="600"/>
      <point x="525" y="588"/>
      <point x="525" y="567" type="curve" smooth="yes"/>
      <point x="525" y="551"/>
      <point x="516" y="534"/>
      <point x="498" y="515" type="curve" smooth="yes"/>
      <point x="261" y="268" type="line"/>
      <point x="142" y="306" type="line" smooth="yes"/>
      <point x="129" y="310"/>
      <point x="123" y="318"/>
      <point x="123" y="329" type="curve" smooth="yes"/>
      <point x="123" y="337"/>
      <point x="128" y="346"/>
      <point x="137" y="355" type="curve" smooth="yes"/>
      <point x="239" y="454" type="line" smooth="yes"/>
      <point x="281" y="495"/>
      <point x="299" y="523"/>
      <point x="299" y="567" type="curve" smooth="yes"/>
      <point x="299" y="639"/>
      <point x="254" y="681"/>
      <point x="175" y="681" type="curve" smooth="yes"/>
      <point x="106" y="681"/>
      <point x="54" y="634"/>
      <point x="54" y="567" type="curve" smooth="yes"/>
      <point x="54" y="540"/>
      <point x="60" y="517"/>
      <point x="72" y="496" type="curve"/>
      <point x="141" y="531" type="line"/>
      <point x="135" y="542"/>
      <point x="132" y="552"/>
      <point x="132" y="563" type="curve" smooth="yes"/>
      <point x="132" y="591"/>
      <point x="151" y="608"/>
      <point x="183" y="608" type="curve" smooth="yes"/>
      <point x="214" y="608"/>
      <point x="229" y="593"/>
      <point x="229" y="564" type="curve" smooth="yes"/>
      <point x="229" y="539"/>
      <point x="208" y="521"/>
      <point x="181" y="496" type="curve" smooth="yes"/>
      <point x="72" y="396" type="line" smooth="yes"/>
      <point x="49" y="375"/>
      <point x="33" y="358"/>
      <point x="33" y="330" type="curve" smooth="yes"/>
      <point x="33" y="289"/>
      <point x="59" y="265"/>
      <point x="107" y="250" type="curve" smooth="yes"/>
      <point x="213" y="217" type="line"/>
      <point x="190" y="189"/>
      <point x="174" y="160"/>
      <point x="174" y="121" type="curve" smooth="yes"/>
      <point x="174" y="46"/>
      <point x="235" y="-5"/>
    </contour>
    <contour>
      <point x="312" y="70" type="curve" smooth="yes"/>
      <point x="279" y="70"/>
      <point x="252" y="91"/>
      <point x="252" y="123" type="curve" smooth="yes"/>
      <point x="252" y="150"/>
      <point x="267" y="168"/>
      <point x="290" y="193" type="curve"/>
      <point x="361" y="172"/>
      <point x="373" y="156"/>
      <point x="373" y="124" type="curve" smooth="yes"/>
      <point x="373" y="95"/>
      <point x="348" y="70"/>
    </contour>
  </outline>
</glyph>
<glyph name="uniA8A4" format="2">
  <advance width="710"/>
  <unicode hex="A8A4"/>
  <outline>
    <contour>
      <point x="336" y="-10" type="curve" smooth="yes"/>
      <point x="536" y="-10"/>
      <point x="662" y="132"/>
      <point x="662" y="367" type="curve" smooth="yes"/>
      <point x="662" y="549"/>
      <point x="576" y="671"/>
      <point x="438" y="671" type="curve" smooth="yes"/>
      <point x="431" y="671" type="line"/>
      <point x="431" y="593" type="line"/>
      <point x="434" y="593" type="line" smooth="yes"/>
      <point x="531" y="593"/>
      <point x="587" y="507"/>
      <point x="587" y="371" type="curve" smooth="yes"/>
      <point x="587" y="179"/>
      <point x="494" y="70"/>
      <point x="333" y="70" type="curve" smooth="yes"/>
      <point x="194" y="70"/>
      <point x="115" y="123"/>
      <point x="115" y="219" type="curve" smooth="yes"/>
      <point x="115" y="275"/>
      <point x="141" y="306"/>
      <point x="196" y="321" type="curve" smooth="yes"/>
      <point x="223" y="328"/>
      <point x="265" y="332"/>
      <point x="322" y="332" type="curve"/>
      <point x="322" y="403" type="line"/>
      <point x="198" y="403"/>
      <point x="137" y="448"/>
      <point x="137" y="528" type="curve" smooth="yes"/>
      <point x="137" y="568"/>
      <point x="168" y="595"/>
      <point x="213" y="595" type="curve" smooth="yes"/>
      <point x="253" y="595"/>
      <point x="273" y="576"/>
      <point x="273" y="537" type="curve" smooth="yes"/>
      <point x="273" y="533" type="line"/>
      <point x="347" y="533" type="line"/>
      <point x="347" y="537"/>
      <point x="348" y="542"/>
      <point x="348" y="546" type="curve" smooth="yes"/>
      <point x="348" y="622"/>
      <point x="304" y="673"/>
      <point x="209" y="673" type="curve" smooth="yes"/>
      <point x="121" y="673"/>
      <point x="60" y="614"/>
      <point x="60" y="530" type="curve" smooth="yes"/>
      <point x="60" y="447"/>
      <point x="108" y="388"/>
      <point x="197" y="371" type="curve"/>
      <point x="92" y="364"/>
      <point x="40" y="315"/>
      <point x="40" y="215" type="curve" smooth="yes"/>
      <point x="40" y="76"/>
      <point x="163" y="-10"/>
    </contour>
  </outline>
</glyph>
<glyph name="uniA8A8" format="2">
  <advance width="639"/>
  <unicode hex="A8A8"/>
  <outline>
    <contour>
      <point x="319" y="-9" type="curve" smooth="yes"/>
      <point x="490" y="-9"/>
      <point x="576" y="49"/>
      <point x="576" y="165" type="curve" smooth="yes"/>
      <point x="576" y="192"/>
      <point x="571" y="219"/>
      <point x="561" y="246" type="curve"/>
      <point x="486" y="222" type="line"/>
      <point x="493" y="209"/>
      <point x="497" y="192"/>
      <point x="497" y="171" type="curve" smooth="yes"/>
      <point x="497" y="104"/>
      <point x="438" y="71"/>
      <point x="320" y="71" type="curve" smooth="yes"/>
      <point x="219" y="71"/>
      <point x="174" y="85"/>
      <point x="145" y="116" type="curve" smooth="yes"/>
      <point x="131" y="131"/>
      <point x="124" y="152"/>
      <point x="124" y="179" type="curve" smooth="yes"/>
      <point x="124" y="236"/>
      <point x="144" y="262"/>
      <point x="195" y="274" type="curve" smooth="yes"/>
      <point x="220" y="280"/>
      <point x="261" y="283"/>
      <point x="316" y="283" type="curve" smooth="yes"/>
      <point x="378" y="283" type="line" smooth="yes"/>
      <point x="527" y="283"/>
      <point x="592" y="345"/>
      <point x="592" y="486" type="curve" smooth="yes"/>
      <point x="592" y="614"/>
      <point x="549" y="674"/>
      <point x="464" y="674" type="curve" smooth="yes"/>
      <point x="439" y="674"/>
      <point x="405" y="662"/>
      <point x="336" y="619" type="curve"/>
      <point x="325" y="655"/>
      <point x="305" y="672"/>
      <point x="264" y="672" type="curve" smooth="yes"/>
      <point x="219" y="672"/>
      <point x="189" y="646"/>
      <point x="189" y="599" type="curve" smooth="yes"/>
      <point x="189" y="551"/>
      <point x="219" y="528"/>
      <point x="264" y="525" type="curve"/>
      <point x="256" y="493"/>
      <point x="232" y="477"/>
      <point x="192" y="477" type="curve" smooth="yes"/>
      <point x="142" y="477"/>
      <point x="117" y="503"/>
      <point x="117" y="554" type="curve" smooth="yes"/>
      <point x="117" y="577"/>
      <point x="127" y="600"/>
      <point x="146" y="622" type="curve"/>
      <point x="91" y="670" type="line"/>
      <point x="59" y="640"/>
      <point x="43" y="601"/>
      <point x="43" y="554" type="curve" smooth="yes"/>
      <point x="43" y="462"/>
      <point x="101" y="404"/>
      <point x="196" y="404" type="curve" smooth="yes"/>
      <point x="285" y="404"/>
      <point x="334" y="454"/>
      <point x="342" y="539" type="curve"/>
      <point x="423" y="586"/>
      <point x="436" y="595"/>
      <point x="463" y="595" type="curve" smooth="yes"/>
      <point x="506" y="595"/>
      <point x="527" y="559"/>
      <point x="527" y="488" type="curve" smooth="yes"/>
      <point x="527" y="387"/>
      <point x="477" y="346"/>
      <point x="362" y="346" type="curve" smooth="yes"/>
      <point x="321" y="346" type="line" smooth="yes"/>
      <point x="205" y="346"/>
      <point x="117" y="342"/>
      <point x="72" y="281" type="curve" smooth="yes"/>
      <point x="55" y="258"/>
      <point x="47" y="225"/>
      <point x="47" y="184" type="curve" smooth="yes"/>
      <point x="47" y="55"/>
      <point x="124" y="-9"/>
    </contour>
  </outline>
</glyph>
<glyph name="uniA8A9" format="2">
  <advance width="853"/>
  <unicode hex="A8A9"/>
  <outline>
    <contour>
      <point x="210" y="-9" type="curve" smooth="yes"/>
      <point x="313" y="-9"/>
      <point x="359" y="64"/>
      <point x="359" y="221" type="curve" smooth="yes"/>
      <point x="359" y="379" type="line" smooth="yes"/>
      <point x="359" y="492"/>
      <point x="364" y="593"/>
      <point x="439" y="593" type="curve" smooth="yes"/>
      <point x="488" y="593"/>
      <point x="511" y="540"/>
      <point x="511" y="424" type="curve" smooth="yes"/>
      <point x="511" y="341" type="line"/>
      <point x="583" y="341" type="line"/>
      <point x="583" y="424" type="line" smooth="yes"/>
      <point x="583" y="551"/>
      <point x="602" y="593"/>
      <point x="653" y="593" type="curve" smooth="yes"/>
      <point x="715" y="593"/>
      <point x="739" y="527"/>
      <point x="739" y="373" type="curve" smooth="yes"/>
      <point x="739" y="252"/>
      <point x="729" y="191"/>
      <point x="710" y="150" type="curve" smooth="yes"/>
      <point x="691" y="110"/>
      <point x="663" y="85"/>
      <point x="623" y="80" type="curve"/>
      <point x="623" y="-6" type="line"/>
      <point x="751" y="2"/>
      <point x="811" y="113"/>
      <point x="811" y="373" type="curve" smooth="yes"/>
      <point x="811" y="573"/>
      <point x="762" y="673"/>
      <point x="664" y="673" type="curve" smooth="yes"/>
      <point x="593" y="673"/>
      <point x="560" y="639"/>
      <point x="548" y="574" type="curve"/>
      <point x="545" y="573" type="line"/>
      <point x="533" y="640"/>
      <point x="494" y="674"/>
      <point x="427" y="674" type="curve" smooth="yes"/>
      <point x="330" y="674"/>
      <point x="285" y="588"/>
      <point x="285" y="412" type="curve" smooth="yes"/>
      <point x="285" y="222" type="line" smooth="yes"/>
      <point x="285" y="121"/>
      <point x="260" y="70"/>
      <point x="210" y="70" type="curve" smooth="yes"/>
      <point x="147" y="70"/>
      <point x="120" y="136"/>
      <point x="120" y="295" type="curve" smooth="yes"/>
      <point x="120" y="436"/>
      <point x="150" y="535"/>
      <point x="234" y="631" type="curve"/>
      <point x="168" y="678" type="line"/>
      <point x="85" y="586"/>
      <point x="44" y="452"/>
      <point x="44" y="296" type="curve" smooth="yes"/>
      <point x="44" y="91"/>
      <point x="97" y="-9"/>
    </contour>
  </outline>
</glyph>
<glyph name="uniA8AA" format="2">
  <advance width="793"/>
  <unicode hex="A8AA"/>
  <outline>
    <contour>
      <point x="561" y="-9" type="curve" smooth="yes"/>
      <point x="678" y="-9"/>
      <point x="736" y="53"/>
      <point x="736" y="177" type="curve" smooth="yes"/>
      <point x="736" y="666" type="line"/>
      <point x="663" y="666" type="line"/>
      <point x="663" y="183" type="line" smooth="yes"/>
      <point x="663" y="109"/>
      <point x="628" y="72"/>
      <point x="558" y="72" type="curve" smooth="yes"/>
      <point x="511" y="72"/>
      <point x="471" y="84"/>
      <point x="411" y="114" type="curve" smooth="yes"/>
      <point x="349" y="145"/>
      <point x="296" y="157"/>
      <point x="263" y="157" type="curve" smooth="yes"/>
      <point x="216" y="157"/>
      <point x="175" y="135"/>
      <point x="148" y="102" type="curve"/>
      <point x="148" y="130" type="line" smooth="yes"/>
      <point x="148" y="229"/>
      <point x="198" y="276"/>
      <point x="318" y="276" type="curve" smooth="yes"/>
      <point x="389" y="276" type="line" smooth="yes"/>
      <point x="534" y="276"/>
      <point x="599" y="341"/>
      <point x="599" y="486" type="curve" smooth="yes"/>
      <point x="599" y="614"/>
      <point x="548" y="674"/>
      <point x="452" y="674" type="curve" smooth="yes"/>
      <point x="391" y="674"/>
      <point x="340" y="642"/>
      <point x="323" y="594" type="curve"/>
      <point x="302" y="647"/>
      <point x="260" y="674"/>
      <point x="195" y="674" type="curve" smooth="yes"/>
      <point x="104" y="674"/>
      <point x="48" y="615"/>
      <point x="48" y="520" type="curve" smooth="yes"/>
      <point x="48" y="465"/>
      <point x="70" y="403"/>
      <point x="102" y="360" type="curve"/>
      <point x="165" y="399" type="line"/>
      <point x="144" y="427"/>
      <point x="124" y="480"/>
      <point x="124" y="516" type="curve" smooth="yes"/>
      <point x="124" y="567"/>
      <point x="154" y="598"/>
      <point x="206" y="598" type="curve" smooth="yes"/>
      <point x="265" y="598"/>
      <point x="290" y="566"/>
      <point x="290" y="502" type="curve" smooth="yes"/>
      <point x="290" y="421" type="line"/>
      <point x="359" y="421" type="line"/>
      <point x="359" y="502" type="line" smooth="yes"/>
      <point x="359" y="565"/>
      <point x="390" y="596"/>
      <point x="451" y="596" type="curve" smooth="yes"/>
      <point x="505" y="596"/>
      <point x="532" y="560"/>
      <point x="532" y="488" type="curve" smooth="yes"/>
      <point x="532" y="381"/>
      <point x="482" y="338"/>
      <point x="373" y="338" type="curve" smooth="yes"/>
      <point x="313" y="338" type="line" smooth="yes"/>
      <point x="217" y="338"/>
      <point x="162" y="320"/>
      <point x="126" y="287" type="curve" smooth="yes"/>
      <point x="90" y="254"/>
      <point x="71" y="202"/>
      <point x="71" y="131" type="curve" smooth="yes"/>
      <point x="71" y="0" type="line"/>
      <point x="153" y="0" type="line"/>
      <point x="157" y="49"/>
      <point x="198" y="81"/>
      <point x="257" y="81" type="curve" smooth="yes"/>
      <point x="304" y="81"/>
      <point x="348" y="67"/>
      <point x="405" y="36" type="curve" smooth="yes"/>
      <point x="464" y="4"/>
      <point x="510" y="-9"/>
    </contour>
  </outline>
</glyph>
<glyph name="uniA8AD" format="2">
  <advance width="800"/>
  <unicode hex="A8AD"/>
  <outline>
    <contour>
      <point x="318" y="0" type="curve"/>
      <point x="318" y="81" type="line"/>
      <point x="191" y="84"/>
      <point x="121" y="188"/>
      <point x="121" y="372" type="curve" smooth="yes"/>
      <point x="121" y="519"/>
      <point x="157" y="593"/>
      <point x="242" y="593" type="curve" smooth="yes"/>
      <point x="321" y="593"/>
      <point x="353" y="516"/>
      <point x="356" y="341" type="curve"/>
      <point x="435" y="341" type="line"/>
      <point x="437" y="519"/>
      <point x="473" y="593"/>
      <point x="559" y="593" type="curve" smooth="yes"/>
      <point x="640" y="593"/>
      <point x="672" y="522"/>
      <point x="672" y="373" type="curve" smooth="yes"/>
      <point x="672" y="189"/>
      <point x="606" y="86"/>
      <point x="485" y="81" type="curve"/>
      <point x="485" y="0" type="line"/>
      <point x="652" y="5"/>
      <point x="744" y="140"/>
      <point x="744" y="373" type="curve" smooth="yes"/>
      <point x="744" y="565"/>
      <point x="682" y="673"/>
      <point x="562" y="673" type="curve" smooth="yes"/>
      <point x="475" y="673"/>
      <point x="424" y="631"/>
      <point x="396" y="538" type="curve"/>
      <point x="393" y="537" type="line"/>
      <point x="372" y="625"/>
      <point x="317" y="673"/>
      <point x="234" y="673" type="curve" smooth="yes"/>
      <point x="111" y="673"/>
      <point x="49" y="573"/>
      <point x="49" y="372" type="curve" smooth="yes"/>
      <point x="49" y="144"/>
      <point x="152" y="2"/>
    </contour>
  </outline>
</glyph>
<glyph name="uniA8AE" format="2">
  <advance width="637"/>
  <unicode hex="A8AE"/>
  <outline>
    <contour>
      <point x="323" y="-9" type="curve" smooth="yes"/>
      <point x="411" y="-9"/>
      <point x="468" y="46"/>
      <point x="468" y="129" type="curve" smooth="yes"/>
      <point x="468" y="182"/>
      <point x="430" y="222"/>
      <point x="373" y="279" type="curve"/>
      <point x="540" y="437" type="line" smooth="yes"/>
      <point x="587" y="481"/>
      <point x="601" y="508"/>
      <point x="601" y="551" type="curve" smooth="yes"/>
      <point x="601" y="627"/>
      <point x="553" y="676"/>
      <point x="472" y="676" type="curve" smooth="yes"/>
      <point x="432" y="676"/>
      <point x="395" y="663"/>
      <point x="361" y="636" type="curve"/>
      <point x="404" y="575" type="line"/>
      <point x="426" y="592"/>
      <point x="449" y="600"/>
      <point x="474" y="600" type="curve" smooth="yes"/>
      <point x="509" y="600"/>
      <point x="527" y="580"/>
      <point x="527" y="548" type="curve" smooth="yes"/>
      <point x="527" y="530"/>
      <point x="513" y="510"/>
      <point x="490" y="488" type="curve" smooth="yes"/>
      <point x="322" y="329" type="line"/>
      <point x="130" y="518" type="line" smooth="yes"/>
      <point x="115" y="533"/>
      <point x="107" y="548"/>
      <point x="107" y="563" type="curve" smooth="yes"/>
      <point x="107" y="578"/>
      <point x="119" y="590"/>
      <point x="142" y="590" type="curve" smooth="yes"/>
      <point x="267" y="590" type="line"/>
      <point x="267" y="666" type="line"/>
      <point x="136" y="666" type="line" smooth="yes"/>
      <point x="71" y="666"/>
      <point x="30" y="627"/>
      <point x="30" y="570" type="curve" smooth="yes"/>
      <point x="30" y="537"/>
      <point x="47" y="503"/>
      <point x="81" y="469" type="curve" smooth="yes"/>
      <point x="272" y="282" type="line"/>
      <point x="198" y="214"/>
      <point x="176" y="173"/>
      <point x="176" y="128" type="curve" smooth="yes"/>
      <point x="176" y="45"/>
      <point x="235" y="-9"/>
    </contour>
    <contour>
      <point x="323" y="69" type="curve" smooth="yes"/>
      <point x="280" y="69"/>
      <point x="251" y="94"/>
      <point x="251" y="133" type="curve" smooth="yes"/>
      <point x="251" y="164"/>
      <point x="272" y="188"/>
      <point x="323" y="232" type="curve"/>
      <point x="354" y="203" type="line" smooth="yes"/>
      <point x="383" y="175"/>
      <point x="394" y="157"/>
      <point x="394" y="134" type="curve" smooth="yes"/>
      <point x="394" y="95"/>
      <point x="366" y="69"/>
    </contour>
  </outline>
</glyph>
<glyph name="uniA8B0" format="2">
  <advance width="798"/>
  <unicode hex="A8B0"/>
  <outline>
    <contour>
      <point x="334" y="-11" type="curve" smooth="yes"/>
      <point x="487" y="-11"/>
      <point x="588" y="91"/>
      <point x="631" y="290" type="curve"/>
      <point x="672" y="263"/>
      <point x="693" y="230"/>
      <point x="693" y="179" type="curve" smooth="yes"/>
      <point x="693" y="140"/>
      <point x="669" y="100"/>
      <point x="620" y="57" type="curve"/>
      <point x="681" y="-1" type="line"/>
      <point x="738" y="52"/>
      <point x="767" y="109"/>
      <point x="767" y="170" type="curve" smooth="yes"/>
      <point x="767" y="255"/>
      <point x="726" y="305"/>
      <point x="650" y="364" type="curve"/>
      <point x="664" y="421"/>
      <point x="671" y="472"/>
      <point x="671" y="515" type="curve" smooth="yes"/>
      <point x="671" y="616"/>
      <point x="619" y="674"/>
      <point x="531" y="674" type="curve" smooth="yes"/>
      <point x="456" y="674"/>
      <point x="405" y="621"/>
      <point x="405" y="540" type="curve" smooth="yes"/>
      <point x="405" y="451"/>
      <point x="476" y="395"/>
      <point x="571" y="336" type="curve"/>
      <point x="536" y="163"/>
      <point x="457" y="69"/>
      <point x="334" y="69" type="curve" smooth="yes"/>
      <point x="191" y="69"/>
      <point x="105" y="173"/>
      <point x="105" y="362" type="curve" smooth="yes"/>
      <point x="105" y="392" type="line"/>
      <point x="132" y="374"/>
      <point x="165" y="365"/>
      <point x="206" y="365" type="curve" smooth="yes"/>
      <point x="287" y="365"/>
      <point x="339" y="426"/>
      <point x="339" y="518" type="curve" smooth="yes"/>
      <point x="339" y="614"/>
      <point x="289" y="675"/>
      <point x="204" y="675" type="curve" smooth="yes"/>
      <point x="93" y="675"/>
      <point x="38" y="566"/>
      <point x="38" y="362" type="curve" smooth="yes"/>
      <point x="38" y="122"/>
      <point x="150" y="-11"/>
    </contour>
    <contour>
      <point x="201" y="443" type="curve" smooth="yes"/>
      <point x="168" y="443"/>
      <point x="140" y="452"/>
      <point x="116" y="471" type="curve"/>
      <point x="124" y="556"/>
      <point x="152" y="597"/>
      <point x="205" y="597" type="curve" smooth="yes"/>
      <point x="245" y="597"/>
      <point x="270" y="570"/>
      <point x="270" y="518" type="curve" smooth="yes"/>
      <point x="270" y="473"/>
      <point x="245" y="443"/>
    </contour>
    <contour>
      <point x="585" y="406" type="curve"/>
      <point x="514" y="446"/>
      <point x="479" y="487"/>
      <point x="479" y="536" type="curve" smooth="yes"/>
      <point x="479" y="572"/>
      <point x="505" y="596"/>
      <point x="536" y="596" type="curve" smooth="yes"/>
      <point x="579" y="596"/>
      <point x="597" y="572"/>
      <point x="597" y="515" type="curve" smooth="yes"/>
      <point x="597" y="473"/>
      <point x="593" y="437"/>
    </contour>
  </outline>
</glyph>
<glyph name="uniA8B2" format="2">
  <advance width="626"/>
  <unicode hex="A8B2"/>
  <outline>
    <contour>
      <point x="328" y="-11" type="curve" smooth="yes"/>
      <point x="473" y="-11"/>
      <point x="584" y="97"/>
      <point x="584" y="233" type="curve" smooth="yes"/>
      <point x="584" y="287"/>
      <point x="574" y="325"/>
      <point x="555" y="360" type="curve"/>
      <point x="493" y="335" type="line"/>
      <point x="505" y="311"/>
      <point x="516" y="272"/>
      <point x="516" y="245" type="curve" smooth="yes"/>
      <point x="516" y="139"/>
      <point x="432" y="68"/>
      <point x="331" y="68" type="curve" smooth="yes"/>
      <point x="211" y="68"/>
      <point x="125" y="136"/>
      <point x="125" y="252" type="curve" smooth="yes"/>
      <point x="125" y="315"/>
      <point x="150" y="366"/>
      <point x="199" y="406" type="curve"/>
      <point x="222" y="337"/>
      <point x="275" y="297"/>
      <point x="343" y="297" type="curve" smooth="yes"/>
      <point x="413" y="297"/>
      <point x="459" y="348"/>
      <point x="459" y="407" type="curve" smooth="yes"/>
      <point x="459" y="474"/>
      <point x="405" y="516"/>
      <point x="324" y="516" type="curve" smooth="yes"/>
      <point x="301" y="516"/>
      <point x="279" y="513"/>
      <point x="257" y="506" type="curve"/>
      <point x="269" y="557"/>
      <point x="309" y="593"/>
      <point x="359" y="593" type="curve" smooth="yes"/>
      <point x="554" y="593" type="line"/>
      <point x="571" y="666" type="line"/>
      <point x="57" y="666" type="line"/>
      <point x="41" y="593" type="line"/>
      <point x="226" y="593" type="line"/>
      <point x="201" y="562"/>
      <point x="188" y="526"/>
      <point x="188" y="485" type="curve" smooth="yes"/>
      <point x="188" y="476" type="line"/>
      <point x="100" y="424"/>
      <point x="55" y="344"/>
      <point x="55" y="252" type="curve" smooth="yes"/>
      <point x="55" y="93"/>
      <point x="176" y="-11"/>
    </contour>
    <contour>
      <point x="341" y="373" type="curve" smooth="yes"/>
      <point x="304" y="373"/>
      <point x="271" y="399"/>
      <point x="259" y="439" type="curve"/>
      <point x="281" y="447"/>
      <point x="302" y="451"/>
      <point x="322" y="451" type="curve" smooth="yes"/>
      <point x="361" y="451"/>
      <point x="385" y="435"/>
      <point x="385" y="410" type="curve" smooth="yes"/>
      <point x="385" y="389"/>
      <point x="368" y="373"/>
    </contour>
  </outline>
</glyph>
<glyph name="uniA8B3" format="2">
  <advance width="847"/>
  <unicode hex="A8B3"/>
  <outline>
    <contour>
      <point x="238" y="-6" type="curve"/>
      <point x="238" y="80" type="line"/>
      <point x="137" y="93"/>
      <point x="122" y="221"/>
      <point x="122" y="373" type="curve" smooth="yes"/>
      <point x="122" y="522"/>
      <point x="147" y="593"/>
      <point x="208" y="593" type="curve" smooth="yes"/>
      <point x="271" y="593"/>
      <point x="278" y="519"/>
      <point x="278" y="423" type="curve" smooth="yes"/>
      <point x="278" y="341" type="line"/>
      <point x="350" y="341" type="line"/>
      <point x="350" y="442" type="line" smooth="yes"/>
      <point x="350" y="539"/>
      <point x="372" y="588"/>
      <point x="424" y="588" type="curve" smooth="yes"/>
      <point x="479" y="588"/>
      <point x="502" y="537"/>
      <point x="502" y="442" type="curve" smooth="yes"/>
      <point x="502" y="341" type="line"/>
      <point x="574" y="341" type="line"/>
      <point x="574" y="424" type="line" smooth="yes"/>
      <point x="574" y="516"/>
      <point x="580" y="593"/>
      <point x="644" y="593" type="curve" smooth="yes"/>
      <point x="705" y="593"/>
      <point x="730" y="522"/>
      <point x="730" y="373" type="curve" smooth="yes"/>
      <point x="730" y="238"/>
      <point x="719" y="95"/>
      <point x="614" y="80" type="curve"/>
      <point x="614" y="-6" type="line"/>
      <point x="742" y="2"/>
      <point x="802" y="113"/>
      <point x="802" y="373" type="curve" smooth="yes"/>
      <point x="802" y="574"/>
      <point x="753" y="673"/>
      <point x="650" y="673" type="curve" smooth="yes"/>
      <point x="587" y="673"/>
      <point x="550" y="639"/>
      <point x="539" y="579" type="curve"/>
      <point x="536" y="578" type="line"/>
      <point x="525" y="642"/>
      <point x="489" y="674"/>
      <point x="428" y="674" type="curve" smooth="yes"/>
      <point x="364" y="674"/>
      <point x="330" y="641"/>
      <point x="318" y="578" type="curve"/>
      <point x="315" y="577" type="line"/>
      <point x="306" y="638"/>
      <point x="266" y="673"/>
      <point x="197" y="673" type="curve" smooth="yes"/>
      <point x="99" y="673"/>
      <point x="50" y="573"/>
      <point x="50" y="373" type="curve" smooth="yes"/>
      <point x="50" y="113"/>
      <point x="110" y="2"/>
    </contour>
  </outline>
</glyph>
<glyph name="uniA8B4" format="2">
  <advance width="373"/>
  <unicode hex="A8B4"/>
  <outline>
    <contour>
      <point x="257" y="0" type="line"/>
      <point x="330" y="0" type="line"/>
      <point x="330" y="666" type="line"/>
      <point x="257" y="656" type="line"/>
      <point x="257" y="337" type="line" smooth="yes"/>
      <point x="257" y="300"/>
      <point x="224" y="277"/>
      <point x="191" y="277" type="curve" smooth="yes"/>
      <point x="141" y="277"/>
      <point x="116" y="307"/>
      <point x="116" y="368" type="curve" smooth="yes"/>
      <point x="116" y="666" type="line"/>
      <point x="42" y="656" type="line"/>
      <point x="42" y="365" type="line" smooth="yes"/>
      <point x="42" y="266"/>
      <point x="94" y="207"/>
      <point x="185" y="207" type="curve" smooth="yes"/>
      <point x="212" y="207"/>
      <point x="236" y="212"/>
      <point x="257" y="223" type="curve"/>
    </contour>
  </outline>
</glyph>
<glyph name="uniA8B6" format="2">
  <unicode hex="A8B6"/>
  <outline>
    <contour>
      <point x="-324" y="704" type="curve"/>
      <point x="-258" y="727" type="line"/>
      <point x="-263" y="736"/>
      <point x="-265" y="746"/>
      <point x="-265" y="756" type="curve" smooth="yes"/>
      <point x="-265" y="784"/>
      <point x="-242" y="804"/>
      <point x="-193" y="804" type="curve" smooth="yes"/>
      <point x="-144" y="804"/>
      <point x="-121" y="784"/>
      <point x="-121" y="756" type="curve" smooth="yes"/>
      <point x="-121" y="745"/>
      <point x="-123" y="736"/>
      <point x="-128" y="727" type="curve"/>
      <point x="-62" y="704" type="line"/>
      <point x="-54" y="724"/>
      <point x="-50" y="743"/>
      <point x="-50" y="760" type="curve" smooth="yes"/>
      <point x="-50" y="831"/>
      <point x="-104" y="877"/>
      <point x="-193" y="877" type="curve" smooth="yes"/>
      <point x="-280" y="877"/>
      <point x="-336" y="832"/>
      <point x="-336" y="760" type="curve" smooth="yes"/>
      <point x="-336" y="741"/>
      <point x="-332" y="723"/>
    </contour>
  </outline>
</glyph>
<glyph name="uniA8B7" format="2">
  <advance width="402"/>
  <unicode hex="A8B7"/>
  <outline>
    <contour>
      <point x="244" y="-9" type="curve" smooth="yes"/>
      <point x="317" y="-9"/>
      <point x="367" y="43"/>
      <point x="367" y="116" type="curve"/>
      <point x="293" y="116" type="line"/>
      <point x="293" y="89"/>
      <point x="277" y="70"/>
      <point x="244" y="70" type="curve" smooth="yes"/>
      <point x="209" y="70"/>
      <point x="192" y="89"/>
      <point x="192" y="148" type="curve" smooth="yes"/>
      <point x="192" y="672" type="line" smooth="yes"/>
      <point x="192" y="811"/>
      <point x="143" y="883"/>
      <point x="31" y="883" type="curve" smooth="yes"/>
      <point x="-57" y="883"/>
      <point x="-128" y="829"/>
      <point x="-128" y="749" type="curve" smooth="yes"/>
      <point x="-128" y="732"/>
      <point x="-125" y="716"/>
      <point x="-119" y="702" type="curve"/>
      <point x="-49" y="726" type="line"/>
      <point x="-52" y="733"/>
      <point x="-53" y="742"/>
      <point x="-53" y="751" type="curve" smooth="yes"/>
      <point x="-53" y="784"/>
      <point x="-15" y="809"/>
      <point x="32" y="809" type="curve" smooth="yes"/>
      <point x="96" y="809"/>
      <point x="118" y="777"/>
      <point x="118" y="692" type="curve" smooth="yes"/>
      <point x="118" y="148" type="line" smooth="yes"/>
      <point x="118" y="37"/>
      <point x="163" y="-9"/>
    </contour>
  </outline>
</glyph>
<glyph name="uniA8BB" format="2">
  <advance width="590"/>
  <unicode hex="A8BB"/>
  <outline>
    <contour>
      <point x="240" y="-170" type="curve" smooth="yes"/>
      <point x="323" y="-170"/>
      <point x="359" y="-115"/>
      <point x="418" y="-115" type="curve" smooth="yes"/>
      <point x="451" y="-115"/>
      <point x="473" y="-130"/>
      <point x="490" y="-157" type="curve"/>
      <point x="552" y="-120" type="line"/>
      <point x="512" y="-61"/>
      <point x="473" y="-39"/>
      <point x="429" y="-39" type="curve" smooth="yes"/>
      <point x="353" y="-39"/>
      <point x="329" y="-95"/>
      <point x="235" y="-95" type="curve" smooth="yes"/>
      <point x="188" y="-95"/>
      <point x="151" y="-77"/>
      <point x="112" y="-38" type="curve"/>
      <point x="65" y="-88" type="line"/>
      <point x="114" y="-143"/>
      <point x="173" y="-170"/>
    </contour>
    <contour>
      <point x="401" y="474" type="curve" smooth="yes"/>
      <point x="373" y="474"/>
      <point x="357" y="491"/>
      <point x="357" y="518" type="curve" smooth="yes"/>
      <point x="357" y="541"/>
      <point x="367" y="563"/>
      <point x="388" y="584" type="curve"/>
      <point x="425" y="571"/>
      <point x="443" y="550"/>
      <point x="443" y="521" type="curve" smooth="yes"/>
      <point x="443" y="490"/>
      <point x="429" y="474"/>
    </contour>
    <contour>
      <point x="289" y="-9" type="curve" smooth="yes"/>
      <point x="460" y="-9"/>
      <point x="551" y="57"/>
      <point x="551" y="184" type="curve" smooth="yes"/>
      <point x="551" y="267"/>
      <point x="522" y="310"/>
      <point x="467" y="330" type="curve" smooth="yes"/>
      <point x="440" y="340"/>
      <point x="396" y="346"/>
      <point x="335" y="346" type="curve" smooth="yes"/>
      <point x="281" y="346" type="line" smooth="yes"/>
      <point x="186" y="346"/>
      <point x="136" y="392"/>
      <point x="136" y="473" type="curve" smooth="yes"/>
      <point x="136" y="552"/>
      <point x="196" y="596"/>
      <point x="297" y="596" type="curve" smooth="yes"/>
      <point x="311" y="596" type="line"/>
      <point x="294" y="573"/>
      <point x="285" y="546"/>
      <point x="285" y="514" type="curve" smooth="yes"/>
      <point x="285" y="442"/>
      <point x="334" y="396"/>
      <point x="403" y="396" type="curve" smooth="yes"/>
      <point x="472" y="396"/>
      <point x="514" y="443"/>
      <point x="514" y="519" type="curve" smooth="yes"/>
      <point x="514" y="610"/>
      <point x="433" y="672"/>
      <point x="295" y="672" type="curve" smooth="yes"/>
      <point x="154" y="672"/>
      <point x="64" y="595"/>
      <point x="64" y="474" type="curve" smooth="yes"/>
      <point x="64" y="349"/>
      <point x="141" y="279"/>
      <point x="281" y="279" type="curve" smooth="yes"/>
      <point x="335" y="279" type="line" smooth="yes"/>
      <point x="420" y="279"/>
      <point x="449" y="269"/>
      <point x="463" y="241" type="curve" smooth="yes"/>
      <point x="470" y="227"/>
      <point x="474" y="206"/>
      <point x="474" y="179" type="curve" smooth="yes"/>
      <point x="474" y="110"/>
      <point x="404" y="71"/>
      <point x="288" y="71" type="curve" smooth="yes"/>
      <point x="172" y="71"/>
      <point x="113" y="110"/>
      <point x="113" y="181" type="curve" smooth="yes"/>
      <point x="113" y="200"/>
      <point x="121" y="222"/>
      <point x="126" y="233" type="curve"/>
      <point x="53" y="257" type="line"/>
      <point x="41" y="226"/>
      <point x="35" y="199"/>
      <point x="35" y="176" type="curve" smooth="yes"/>
      <point x="35" y="55"/>
      <point x="121" y="-9"/>
    </contour>
    <contour>
      <point x="401" y="474" type="curve" smooth="yes"/>
      <point x="373" y="474"/>
      <point x="357" y="491"/>
      <point x="357" y="518" type="curve" smooth="yes"/>
      <point x="357" y="541"/>
      <point x="367" y="563"/>
      <point x="388" y="584" type="curve"/>
      <point x="425" y="571"/>
      <point x="443" y="550"/>
      <point x="443" y="521" type="curve" smooth="yes"/>
      <point x="443" y="490"/>
      <point x="429" y="474"/>
    </contour>
  </outline>
</glyph>
<glyph name="uniA8BD" format="2">
  <advance width="896"/>
  <unicode hex="A8BD"/>
  <outline>
    <contour>
      <point x="680" y="-8" type="curve" smooth="yes"/>
      <point x="793" y="-8"/>
      <point x="843" y="90"/>
      <point x="843" y="315" type="curve" smooth="yes"/>
      <point x="843" y="548"/>
      <point x="762" y="674"/>
      <point x="614" y="674" type="curve" smooth="yes"/>
      <point x="537" y="674"/>
      <point x="479" y="641"/>
      <point x="440" y="575" type="curve"/>
      <point x="408" y="636"/>
      <point x="344" y="674"/>
      <point x="264" y="674" type="curve" smooth="yes"/>
      <point x="125" y="674"/>
      <point x="44" y="554"/>
      <point x="44" y="339" type="curve" smooth="yes"/>
      <point x="44" y="114"/>
      <point x="124" y="-2"/>
      <point x="281" y="-2" type="curve" smooth="yes"/>
      <point x="284" y="-2" type="line"/>
      <point x="278" y="82" type="line"/>
      <point x="170" y="82"/>
      <point x="120" y="165"/>
      <point x="120" y="340" type="curve" smooth="yes"/>
      <point x="120" y="508"/>
      <point x="173" y="595"/>
      <point x="274" y="595" type="curve" smooth="yes"/>
      <point x="350" y="595"/>
      <point x="399" y="538"/>
      <point x="399" y="445" type="curve" smooth="yes"/>
      <point x="399" y="0" type="line"/>
      <point x="474" y="0" type="line"/>
      <point x="474" y="439" type="line" smooth="yes"/>
      <point x="474" y="538"/>
      <point x="527" y="596"/>
      <point x="612" y="596" type="curve" smooth="yes"/>
      <point x="716" y="596"/>
      <point x="768" y="507"/>
      <point x="768" y="328" type="curve" smooth="yes"/>
      <point x="768" y="313"/>
      <point x="767" y="299"/>
      <point x="766" y="284" type="curve"/>
      <point x="721" y="304"/>
      <point x="704" y="308"/>
      <point x="671" y="308" type="curve" smooth="yes"/>
      <point x="588" y="308"/>
      <point x="538" y="252"/>
      <point x="538" y="157" type="curve" smooth="yes"/>
      <point x="538" y="57"/>
      <point x="590" y="-8"/>
    </contour>
    <contour>
      <point x="372" y="-175" type="curve" smooth="yes"/>
      <point x="468" y="-175"/>
      <point x="538" y="-114"/>
      <point x="598" y="-114" type="curve" smooth="yes"/>
      <point x="631" y="-114"/>
      <point x="648" y="-129"/>
      <point x="667" y="-156" type="curve"/>
      <point x="732" y="-119" type="line"/>
      <point x="693" y="-63"/>
      <point x="657" y="-44"/>
      <point x="612" y="-44" type="curve" smooth="yes"/>
      <point x="523" y="-44"/>
      <point x="475" y="-103"/>
      <point x="370" y="-103" type="curve" smooth="yes"/>
      <point x="322" y="-103"/>
      <point x="283" y="-87"/>
      <point x="231" y="-35" type="curve"/>
      <point x="182" y="-81" type="line"/>
      <point x="239" y="-144"/>
      <point x="302" y="-175"/>
    </contour>
    <contour>
      <point x="676" y="70" type="curve" smooth="yes"/>
      <point x="633" y="70"/>
      <point x="611" y="99"/>
      <point x="611" y="156" type="curve" smooth="yes"/>
      <point x="611" y="208"/>
      <point x="638" y="238"/>
      <point x="678" y="238" type="curve" smooth="yes"/>
      <point x="703" y="238"/>
      <point x="730" y="231"/>
      <point x="761" y="216" type="curve"/>
      <point x="758" y="121"/>
      <point x="733" y="70"/>
    </contour>
  </outline>
</glyph>
<glyph name="uniA8C1" format="2">
  <advance width="507"/>
  <unicode hex="A8C1"/>
  <outline>
    <contour>
      <point x="409" y="-11" type="curve" smooth="yes"/>
      <point x="417" y="-11"/>
      <point x="426" y="-10"/>
      <point x="434" y="-9" type="curve"/>
      <point x="427" y="65" type="line"/>
      <point x="420" y="64"/>
      <point x="413" y="63"/>
      <point x="406" y="63" type="curve" smooth="yes"/>
      <point x="361" y="63"/>
      <point x="322" y="95"/>
      <point x="285" y="160" type="curve" smooth="yes"/>
      <point x="240" y="238"/>
      <point x="213" y="269"/>
      <point x="180" y="278" type="curve"/>
      <point x="279" y="293"/>
      <point x="372" y="350"/>
      <point x="430" y="430" type="curve" smooth="yes"/>
      <point x="459" y="470"/>
      <point x="474" y="508"/>
      <point x="474" y="545" type="curve" smooth="yes"/>
      <point x="474" y="621"/>
      <point x="424" y="666"/>
      <point x="358" y="666" type="curve" smooth="yes"/>
      <point x="152" y="666" type="line" smooth="yes"/>
      <point x="69" y="666"/>
      <point x="29" y="631"/>
      <point x="29" y="567" type="curve" smooth="yes"/>
      <point x="29" y="482"/>
      <point x="118" y="416"/>
      <point x="221" y="386" type="curve"/>
      <point x="242" y="452" type="line"/>
      <point x="141" y="485"/>
      <point x="103" y="516"/>
      <point x="103" y="560" type="curve" smooth="yes"/>
      <point x="103" y="581"/>
      <point x="120" y="592"/>
      <point x="154" y="592" type="curve" smooth="yes"/>
      <point x="358" y="592" type="line" smooth="yes"/>
      <point x="386" y="592"/>
      <point x="405" y="574"/>
      <point x="405" y="544" type="curve" smooth="yes"/>
      <point x="405" y="496"/>
      <point x="375" y="458"/>
      <point x="332" y="419" type="curve" smooth="yes"/>
      <point x="275" y="368"/>
      <point x="183" y="331"/>
      <point x="66" y="330" type="curve"/>
      <point x="66" y="258" type="line"/>
      <point x="111" y="258"/>
      <point x="145" y="241"/>
      <point x="173" y="210" type="curve" smooth="yes"/>
      <point x="187" y="194"/>
      <point x="208" y="166"/>
      <point x="234" y="124" type="curve" smooth="yes"/>
      <point x="260" y="82"/>
      <point x="278" y="53"/>
      <point x="294" y="37" type="curve" smooth="yes"/>
      <point x="328" y="3"/>
      <point x="362" y="-11"/>
    </contour>
  </outline>
</glyph>
<glyph name="uniA8C2" format="2">
  <advance width="672"/>
  <unicode hex="A8C2"/>
  <outline>
    <contour>
      <point x="428" y="-9" type="curve" smooth="yes"/>
      <point x="503" y="-9"/>
      <point x="555" y="13"/>
      <point x="620" y="62" type="curve"/>
      <point x="620" y="666" type="line"/>
      <point x="547" y="666" type="line"/>
      <point x="547" y="107" type="line"/>
      <point x="513" y="81"/>
      <point x="472" y="68"/>
      <point x="425" y="68" type="curve" smooth="yes"/>
      <point x="375" y="68"/>
      <point x="329" y="99"/>
      <point x="287" y="162" type="curve" smooth="yes"/>
      <point x="236" y="239"/>
      <point x="212" y="267"/>
      <point x="180" y="278" type="curve"/>
      <point x="279" y="293"/>
      <point x="372" y="350"/>
      <point x="430" y="430" type="curve" smooth="yes"/>
      <point x="459" y="470"/>
      <point x="474" y="508"/>
      <point x="474" y="545" type="curve" smooth="yes"/>
      <point x="474" y="621"/>
      <point x="424" y="666"/>
      <point x="358" y="666" type="curve" smooth="yes"/>
      <point x="152" y="666" type="line" smooth="yes"/>
      <point x="69" y="666"/>
      <point x="29" y="631"/>
      <point x="29" y="567" type="curve" smooth="yes"/>
      <point x="29" y="491"/>
      <point x="103" y="423"/>
      <point x="219" y="388" type="curve"/>
      <point x="242" y="452" type="line"/>
      <point x="143" y="484"/>
      <point x="103" y="517"/>
      <point x="103" y="560" type="curve" smooth="yes"/>
      <point x="103" y="581"/>
      <point x="120" y="592"/>
      <point x="154" y="592" type="curve" smooth="yes"/>
      <point x="358" y="592" type="line" smooth="yes"/>
      <point x="386" y="592"/>
      <point x="405" y="574"/>
      <point x="405" y="545" type="curve" smooth="yes"/>
      <point x="405" y="512"/>
      <point x="391" y="474"/>
      <point x="341" y="427" type="curve" smooth="yes"/>
      <point x="294" y="383"/>
      <point x="210" y="333"/>
      <point x="66" y="330" type="curve"/>
      <point x="66" y="258" type="line"/>
      <point x="221" y="253"/>
      <point x="242" y="-9"/>
    </contour>
  </outline>
</glyph>
<glyph name="uniA8C3" format="2">
  <advance width="785"/>
  <unicode hex="A8C3"/>
  <outline>
    <contour>
      <point x="288" y="-9" type="curve" smooth="yes"/>
      <point x="348" y="-9"/>
      <point x="376" y="21"/>
      <point x="376" y="114" type="curve" smooth="yes"/>
      <point x="376" y="314" type="line"/>
      <point x="510" y="366" type="line"/>
      <point x="510" y="132" type="line" smooth="yes"/>
      <point x="510" y="47"/>
      <point x="564" y="-9"/>
      <point x="645" y="-9" type="curve" smooth="yes"/>
      <point x="698" y="-9"/>
      <point x="732" y="9"/>
      <point x="765" y="46" type="curve"/>
      <point x="712" y="105" type="line"/>
      <point x="685" y="78"/>
      <point x="668" y="70"/>
      <point x="645" y="70" type="curve" smooth="yes"/>
      <point x="608" y="70"/>
      <point x="581" y="98"/>
      <point x="581" y="137" type="curve" smooth="yes"/>
      <point x="581" y="393" type="line"/>
      <point x="650" y="420" type="line" smooth="yes"/>
      <point x="729" y="451"/>
      <point x="759" y="488"/>
      <point x="759" y="551" type="curve" smooth="yes"/>
      <point x="759" y="619"/>
      <point x="709" y="672"/>
      <point x="640" y="672" type="curve" smooth="yes"/>
      <point x="555" y="672"/>
      <point x="510" y="629"/>
      <point x="510" y="525" type="curve" smooth="yes"/>
      <point x="510" y="437" type="line"/>
      <point x="376" y="384" type="line"/>
      <point x="376" y="518" type="line" smooth="yes"/>
      <point x="376" y="617"/>
      <point x="335" y="666"/>
      <point x="252" y="666" type="curve" smooth="yes"/>
      <point x="152" y="666" type="line" smooth="yes"/>
      <point x="81" y="666"/>
      <point x="42" y="631"/>
      <point x="42" y="572" type="curve" smooth="yes"/>
      <point x="42" y="500"/>
      <point x="131" y="422"/>
      <point x="203" y="392" type="curve"/>
      <point x="233" y="460" type="line"/>
      <point x="166" y="487"/>
      <point x="116" y="530"/>
      <point x="116" y="566" type="curve" smooth="yes"/>
      <point x="116" y="585"/>
      <point x="129" y="595"/>
      <point x="152" y="595" type="curve" smooth="yes"/>
      <point x="252" y="595" type="line" smooth="yes"/>
      <point x="287" y="595"/>
      <point x="305" y="571"/>
      <point x="305" y="523" type="curve" smooth="yes"/>
      <point x="305" y="356" type="line"/>
      <point x="174" y="305" type="line" smooth="yes"/>
      <point x="106" y="278"/>
      <point x="86" y="256"/>
      <point x="86" y="215" type="curve" smooth="yes"/>
      <point x="86" y="190"/>
      <point x="98" y="160"/>
      <point x="121" y="125" type="curve" smooth="yes"/>
      <point x="144" y="90"/>
      <point x="173" y="58"/>
      <point x="206" y="31" type="curve" smooth="yes"/>
      <point x="239" y="4"/>
      <point x="267" y="-9"/>
    </contour>
    <contour>
      <point x="282" y="70" type="curve" smooth="yes"/>
      <point x="273" y="70"/>
      <point x="258" y="78"/>
      <point x="237" y="95" type="curve" smooth="yes"/>
      <point x="216" y="112"/>
      <point x="199" y="131"/>
      <point x="184" y="150" type="curve" smooth="yes"/>
      <point x="169" y="170"/>
      <point x="162" y="186"/>
      <point x="162" y="199" type="curve" smooth="yes"/>
      <point x="162" y="224"/>
      <point x="173" y="235"/>
      <point x="206" y="248" type="curve" smooth="yes"/>
      <point x="305" y="286" type="line"/>
      <point x="305" y="107" type="line" smooth="yes"/>
      <point x="305" y="80"/>
      <point x="298" y="70"/>
    </contour>
    <contour>
      <point x="581" y="465" type="line"/>
      <point x="581" y="530" type="line" smooth="yes"/>
      <point x="581" y="574"/>
      <point x="600" y="596"/>
      <point x="638" y="596" type="curve" smooth="yes"/>
      <point x="667" y="596"/>
      <point x="685" y="575"/>
      <point x="685" y="548" type="curve" smooth="yes"/>
      <point x="685" y="519"/>
      <point x="663" y="497"/>
      <point x="620" y="480" type="curve" smooth="yes"/>
    </contour>
  </outline>
</glyph>
<glyph name="uniA8C4" format="2">
  <unicode hex="A8C4"/>
  <outline>
    <contour>
      <point x="-248" y="-256" type="line"/>
      <point x="-195" y="-188" type="line"/>
      <point x="-381" y="-56" type="line"/>
      <point x="-422" y="-108" type="line"/>
    </contour>
  </outline>
</glyph>
<glyph name="uniA8CF" format="2">
  <advance width="447"/>
  <unicode hex="A8CF"/>
  <outline>
    <contour>
      <point x="267" y="-20" type="line"/>
      <point x="340" y="-20" type="line"/>
      <point x="340" y="686" type="line"/>
      <point x="267" y="686" type="line"/>
    </contour>
    <contour>
      <point x="77" y="-20" type="line"/>
      <point x="150" y="-20" type="line"/>
      <point x="150" y="686" type="line"/>
      <point x="77" y="686" type="line"/>
    </contour>
  </outline>
</glyph>
<glyph name="uniA8D0" format="2">
  <advance width="567"/>
  <unicode hex="A8D0"/>
  <outline>
    <contour>
      <point x="281" y="-9" type="curve" smooth="yes"/>
      <point x="433" y="-9"/>
      <point x="517" y="110"/>
      <point x="517" y="327" type="curve" smooth="yes"/>
      <point x="517" y="546"/>
      <point x="432" y="672"/>
      <point x="281" y="672" type="curve" smooth="yes"/>
      <point x="132" y="672"/>
      <point x="46" y="547"/>
      <point x="46" y="327" type="curve" smooth="yes"/>
      <point x="46" y="116"/>
      <point x="132" y="-9"/>
    </contour>
    <contour>
      <point x="281" y="74" type="curve" smooth="yes"/>
      <point x="174" y="74"/>
      <point x="121" y="152"/>
      <point x="121" y="327" type="curve" smooth="yes"/>
      <point x="121" y="505"/>
      <point x="174" y="594"/>
      <point x="281" y="594" type="curve" smooth="yes"/>
      <point x="388" y="594"/>
      <point x="442" y="505"/>
      <point x="442" y="327" type="curve" smooth="yes"/>
      <point x="442" y="152"/>
      <point x="389" y="74"/>
    </contour>
  </outline>
</glyph>
<glyph name="uniA8D2" format="2">
  <advance width="448"/>
  <unicode hex="A8D2"/>
  <outline>
    <contour>
      <point x="369" y="9" type="curve" smooth="yes"/>
      <point x="380" y="9"/>
      <point x="391" y="10"/>
      <point x="402" y="11" type="curve"/>
      <point x="395" y="89" type="line"/>
      <point x="385" y="88"/>
      <point x="376" y="87"/>
      <point x="366" y="87" type="curve" smooth="yes"/>
      <point x="299" y="87"/>
      <point x="271" y="125"/>
      <point x="228" y="196" type="curve" smooth="yes"/>
      <point x="207" y="231"/>
      <point x="188" y="256"/>
      <point x="171" y="271" type="curve"/>
      <point x="182" y="270"/>
      <point x="194" y="269"/>
      <point x="205" y="269" type="curve" smooth="yes"/>
      <point x="331" y="269"/>
      <point x="408" y="353"/>
      <point x="408" y="477" type="curve" smooth="yes"/>
      <point x="408" y="585"/>
      <point x="330" y="675"/>
      <point x="217" y="675" type="curve" smooth="yes"/>
      <point x="145" y="675"/>
      <point x="84" y="653"/>
      <point x="28" y="600" type="curve"/>
      <point x="80" y="537" type="line"/>
      <point x="129" y="578"/>
      <point x="161" y="594"/>
      <point x="220" y="594" type="curve" smooth="yes"/>
      <point x="291" y="594"/>
      <point x="334" y="548"/>
      <point x="334" y="475" type="curve" smooth="yes"/>
      <point x="334" y="391"/>
      <point x="276" y="338"/>
      <point x="176" y="338" type="curve" smooth="yes"/>
      <point x="150" y="338"/>
      <point x="122" y="342"/>
      <point x="92" y="350" type="curve"/>
      <point x="68" y="280" type="line"/>
      <point x="191" y="209"/>
      <point x="181" y="9"/>
    </contour>
  </outline>
</glyph>
<glyph name="uniA8D4" format="2">
  <advance width="511"/>
  <unicode hex="A8D4"/>
  <outline>
    <contour>
      <point x="249" y="-9" type="curve" smooth="yes"/>
      <point x="356" y="-9"/>
      <point x="460" y="59"/>
      <point x="460" y="186" type="curve" smooth="yes"/>
      <point x="460" y="274"/>
      <point x="412" y="340"/>
      <point x="321" y="380" type="curve"/>
      <point x="428" y="429"/>
      <point x="460" y="475"/>
      <point x="460" y="545" type="curve" smooth="yes"/>
      <point x="460" y="592"/>
      <point x="431" y="642"/>
      <point x="376" y="674" type="curve"/>
      <point x="328" y="621" type="line"/>
      <point x="365" y="598"/>
      <point x="386" y="576"/>
      <point x="386" y="535" type="curve" smooth="yes"/>
      <point x="386" y="502"/>
      <point x="367" y="475"/>
      <point x="332" y="452" type="curve" smooth="yes"/>
      <point x="315" y="441"/>
      <point x="287" y="428"/>
      <point x="248" y="411" type="curve"/>
      <point x="149" y="448"/>
      <point x="111" y="488"/>
      <point x="111" y="535" type="curve" smooth="yes"/>
      <point x="111" y="576"/>
      <point x="132" y="598"/>
      <point x="169" y="621" type="curve"/>
      <point x="121" y="674" type="line"/>
      <point x="66" y="642"/>
      <point x="37" y="595"/>
      <point x="37" y="539" type="curve" smooth="yes"/>
      <point x="37" y="475"/>
      <point x="71" y="429"/>
      <point x="175" y="380" type="curve"/>
      <point x="86" y="341"/>
      <point x="37" y="272"/>
      <point x="37" y="189" type="curve" smooth="yes"/>
      <point x="37" y="64"/>
      <point x="132" y="-9"/>
    </contour>
    <contour>
      <point x="250" y="69" type="curve" smooth="yes"/>
      <point x="166" y="69"/>
      <point x="104" y="113"/>
      <point x="104" y="191" type="curve" smooth="yes"/>
      <point x="104" y="257"/>
      <point x="145" y="304"/>
      <point x="248" y="350" type="curve"/>
      <point x="352" y="307"/>
      <point x="392" y="260"/>
      <point x="392" y="200" type="curve" smooth="yes"/>
      <point x="392" y="120"/>
      <point x="336" y="69"/>
    </contour>
  </outline>
</glyph>
<glyph name="uniA8D5" format="2">
  <advance width="591"/>
  <unicode hex="A8D5"/>
  <outline>
    <contour>
      <point x="367" y="-9" type="line"/>
      <point x="378" y="-9" type="line" smooth="yes"/>
      <point x="483" y="-9"/>
      <point x="543" y="61"/>
      <point x="543" y="188" type="curve" smooth="yes"/>
      <point x="543" y="317"/>
      <point x="487" y="386"/>
      <point x="388" y="386" type="curve" smooth="yes"/>
      <point x="376" y="386"/>
      <point x="360" y="383"/>
      <point x="340" y="377" type="curve"/>
      <point x="465" y="641" type="line"/>
      <point x="405" y="674" type="line"/>
      <point x="249" y="344" type="line"/>
      <point x="228" y="337"/>
      <point x="209" y="334"/>
      <point x="194" y="334" type="curve" smooth="yes"/>
      <point x="145" y="334"/>
      <point x="116" y="384"/>
      <point x="116" y="464" type="curve" smooth="yes"/>
      <point x="116" y="549"/>
      <point x="153" y="592"/>
      <point x="226" y="592" type="curve"/>
      <point x="226" y="672" type="line"/>
      <point x="223" y="672" type="line" smooth="yes"/>
      <point x="110" y="672"/>
      <point x="46" y="596"/>
      <point x="46" y="464" type="curve" smooth="yes"/>
      <point x="46" y="339"/>
      <point x="102" y="265"/>
      <point x="194" y="265" type="curve" smooth="yes"/>
      <point x="200" y="265"/>
      <point x="206" y="265"/>
      <point x="212" y="266" type="curve"/>
      <point x="105" y="41" type="line"/>
      <point x="164" y="7" type="line"/>
      <point x="301" y="295" type="line"/>
      <point x="332" y="306"/>
      <point x="361" y="317"/>
      <point x="388" y="317" type="curve" smooth="yes"/>
      <point x="439" y="317"/>
      <point x="471" y="271"/>
      <point x="471" y="191" type="curve" smooth="yes"/>
      <point x="471" y="151"/>
      <point x="463" y="115"/>
      <point x="442" y="95" type="curve" smooth="yes"/>
      <point x="426" y="79"/>
      <point x="403" y="73"/>
      <point x="367" y="71" type="curve"/>
    </contour>
  </outline>
</glyph>
<glyph name="uniA8D6" format="2">
  <advance width="472"/>
  <unicode hex="A8D6"/>
  <outline>
    <contour>
      <point x="240" y="-9" type="curve" smooth="yes"/>
      <point x="319" y="-9"/>
      <point x="383" y="28"/>
      <point x="423" y="93" type="curve"/>
      <point x="367" y="142" type="line"/>
      <point x="334" y="93"/>
      <point x="291" y="68"/>
      <point x="239" y="68" type="curve" smooth="yes"/>
      <point x="152" y="68"/>
      <point x="108" y="115"/>
      <point x="108" y="210" type="curve" smooth="yes"/>
      <point x="108" y="302"/>
      <point x="158" y="352"/>
      <point x="258" y="352" type="curve" smooth="yes"/>
      <point x="262" y="352" type="line"/>
      <point x="262" y="416" type="line"/>
      <point x="157" y="416"/>
      <point x="105" y="449"/>
      <point x="105" y="514" type="curve" smooth="yes"/>
      <point x="105" y="567"/>
      <point x="148" y="597"/>
      <point x="236" y="597" type="curve" smooth="yes"/>
      <point x="308" y="597"/>
      <point x="344" y="577"/>
      <point x="344" y="537" type="curve" smooth="yes"/>
      <point x="344" y="517"/>
      <point x="338" y="505"/>
      <point x="315" y="486" type="curve"/>
      <point x="367" y="433" type="line"/>
      <point x="399" y="458"/>
      <point x="418" y="498"/>
      <point x="418" y="533" type="curve" smooth="yes"/>
      <point x="418" y="625"/>
      <point x="352" y="670"/>
      <point x="231" y="670" type="curve" smooth="yes"/>
      <point x="110" y="670"/>
      <point x="33" y="612"/>
      <point x="33" y="515" type="curve" smooth="yes"/>
      <point x="33" y="442"/>
      <point x="78" y="394"/>
      <point x="157" y="381" type="curve"/>
      <point x="76" y="362"/>
      <point x="36" y="304"/>
      <point x="36" y="208" type="curve" smooth="yes"/>
      <point x="36" y="68"/>
      <point x="116" y="-9"/>
    </contour>
  </outline>
</glyph>
<glyph name="uniA8B0A89CA8AC" format="2">
  <advance width="1389"/>
  <outline>
    <contour>
      <point x="541" y="-11" type="curve" smooth="yes"/>
      <point x="696" y="-11"/>
      <point x="797" y="88"/>
      <point x="841" y="290" type="curve"/>
      <point x="882" y="263"/>
      <point x="903" y="230"/>
      <point x="903" y="179" type="curve" smooth="yes"/>
      <point x="903" y="140"/>
      <point x="878" y="100"/>
      <point x="830" y="57" type="curve"/>
      <point x="891" y="-1" type="line"/>
      <point x="948" y="52"/>
      <point x="977" y="109"/>
      <point x="977" y="170" type="curve" smooth="yes"/>
      <point x="977" y="250"/>
      <point x="949" y="295"/>
      <point x="860" y="364" type="curve"/>
      <point x="874" y="421"/>
      <point x="881" y="472"/>
      <point x="881" y="515" type="curve" smooth="yes"/>
      <point x="881" y="616"/>
      <point x="829" y="674"/>
      <point x="741" y="674" type="curve" smooth="yes"/>
      <point x="667" y="674"/>
      <point x="615" y="622"/>
      <point x="615" y="540" type="curve" smooth="yes"/>
      <point x="615" y="470"/>
      <point x="653" y="414"/>
      <point x="781" y="336" type="curve"/>
      <point x="746" y="163"/>
      <point x="667" y="69"/>
      <point x="544" y="69" type="curve" smooth="yes"/>
      <point x="400" y="69"/>
      <point x="315" y="173"/>
      <point x="315" y="362" type="curve" smooth="yes"/>
      <point x="315" y="392" type="line"/>
      <point x="342" y="374"/>
      <point x="375" y="365"/>
      <point x="416" y="365" type="curve" smooth="yes"/>
      <point x="497" y="365"/>
      <point x="549" y="426"/>
      <point x="549" y="518" type="curve" smooth="yes"/>
      <point x="549" y="614"/>
      <point x="498" y="675"/>
      <point x="414" y="675" type="curve" smooth="yes"/>
      <point x="303" y="675"/>
      <point x="248" y="566"/>
      <point x="248" y="362" type="curve" smooth="yes"/>
      <point x="248" y="125"/>
      <point x="358" y="-11"/>
    </contour>
    <contour>
      <point x="106" y="-89" type="curve" smooth="yes"/>
      <point x="84" y="-89"/>
      <point x="69" y="-74"/>
      <point x="69" y="-52" type="curve" smooth="yes"/>
      <point x="69" y="-32"/>
      <point x="83" y="-15"/>
      <point x="109" y="-15" type="curve" smooth="yes"/>
      <point x="124" y="-15"/>
      <point x="142" y="-19"/>
      <point x="162" y="-27" type="curve"/>
      <point x="150" y="-72"/>
      <point x="133" y="-89"/>
    </contour>
    <contour>
      <point x="106" y="-159" type="curve" smooth="yes"/>
      <point x="168" y="-159"/>
      <point x="208" y="-128"/>
      <point x="227" y="-62" type="curve"/>
      <point x="277" y="-94" type="line" smooth="yes"/>
      <point x="344" y="-137"/>
      <point x="389" y="-156"/>
      <point x="428" y="-156" type="curve" smooth="yes"/>
      <point x="490" y="-156"/>
      <point x="542" y="-130"/>
      <point x="579" y="-73" type="curve"/>
      <point x="517" y="-40" type="line"/>
      <point x="496" y="-66"/>
      <point x="468" y="-79"/>
      <point x="427" y="-79" type="curve" smooth="yes"/>
      <point x="381" y="-79"/>
      <point x="341" y="-60"/>
      <point x="287" y="-26" type="curve" smooth="yes"/>
      <point x="243" y="2" type="line"/>
      <point x="244" y="9"/>
      <point x="244" y="24"/>
      <point x="244" y="31" type="curve" smooth="yes"/>
      <point x="244" y="188"/>
      <point x="157" y="295"/>
      <point x="121" y="313" type="curve"/>
      <point x="82" y="253" type="line"/>
      <point x="115" y="234"/>
      <point x="174" y="143"/>
      <point x="177" y="39" type="curve"/>
      <point x="152" y="50"/>
      <point x="130" y="56"/>
      <point x="111" y="56" type="curve" smooth="yes"/>
      <point x="42" y="56"/>
      <point x="0" y="13"/>
      <point x="0" y="-52" type="curve" smooth="yes"/>
      <point x="0" y="-114"/>
      <point x="44" y="-159"/>
    </contour>
    <contour>
      <point x="411" y="443" type="curve" smooth="yes"/>
      <point x="378" y="443"/>
      <point x="350" y="452"/>
      <point x="326" y="471" type="curve"/>
      <point x="334" y="556"/>
      <point x="362" y="597"/>
      <point x="415" y="597" type="curve" smooth="yes"/>
      <point x="455" y="597"/>
      <point x="480" y="570"/>
      <point x="480" y="518" type="curve" smooth="yes"/>
      <point x="480" y="473"/>
      <point x="456" y="443"/>
    </contour>
    <contour>
      <point x="1155" y="-143" type="curve" smooth="yes"/>
      <point x="1129" y="-143"/>
      <point x="1110" y="-125"/>
      <point x="1110" y="-95" type="curve" smooth="yes"/>
      <point x="1110" y="-63"/>
      <point x="1127" y="-30"/>
      <point x="1155" y="-8" type="curve"/>
      <point x="1182" y="-30"/>
      <point x="1199" y="-63"/>
      <point x="1199" y="-95" type="curve" smooth="yes"/>
      <point x="1199" y="-125"/>
      <point x="1181" y="-143"/>
    </contour>
    <contour>
      <point x="795" y="406" type="curve"/>
      <point x="724" y="446"/>
      <point x="689" y="487"/>
      <point x="689" y="536" type="curve" smooth="yes"/>
      <point x="689" y="572"/>
      <point x="715" y="596"/>
      <point x="746" y="596" type="curve" smooth="yes"/>
      <point x="789" y="596"/>
      <point x="807" y="572"/>
      <point x="807" y="515" type="curve" smooth="yes"/>
      <point x="807" y="473"/>
      <point x="803" y="437"/>
    </contour>
    <contour>
      <point x="1158" y="-216" type="curve" smooth="yes"/>
      <point x="1229" y="-216"/>
      <point x="1276" y="-170"/>
      <point x="1276" y="-95" type="curve" smooth="yes"/>
      <point x="1276" y="-69"/>
      <point x="1262" y="-23"/>
      <point x="1227" y="0" type="curve"/>
      <point x="1331" y="0" type="line"/>
      <point x="1350" y="65" type="line"/>
      <point x="1195" y="65" type="line"/>
      <point x="1206" y="113"/>
      <point x="1216" y="187"/>
      <point x="1216" y="243" type="curve" smooth="yes"/>
      <point x="1216" y="429"/>
      <point x="1153" y="648"/>
      <point x="960" y="674" type="curve"/>
      <point x="960" y="601" type="line"/>
      <point x="1091" y="578"/>
      <point x="1142" y="417"/>
      <point x="1142" y="235" type="curve" smooth="yes"/>
      <point x="1142" y="176"/>
      <point x="1133" y="109"/>
      <point x="1120" y="65" type="curve"/>
      <point x="1001" y="65" type="line"/>
      <point x="982" y="0" type="line"/>
      <point x="1083" y="0" type="line"/>
      <point x="1047" y="-23"/>
      <point x="1033" y="-69"/>
      <point x="1033" y="-95" type="curve" smooth="yes"/>
      <point x="1033" y="-173"/>
      <point x="1084" y="-216"/>
    </contour>
  </outline>
</glyph>
<glyph name="uniA8B0A89D" format="2">
  <advance width="1141"/>
  <outline>
    <contour>
      <point x="331" y="-11" type="curve" smooth="yes"/>
      <point x="486" y="-11"/>
      <point x="587" y="88"/>
      <point x="631" y="290" type="curve"/>
      <point x="672" y="263"/>
      <point x="693" y="230"/>
      <point x="693" y="179" type="curve" smooth="yes"/>
      <point x="693" y="140"/>
      <point x="668" y="100"/>
      <point x="620" y="57" type="curve"/>
      <point x="681" y="-1" type="line"/>
      <point x="738" y="52"/>
      <point x="767" y="109"/>
      <point x="767" y="170" type="curve" smooth="yes"/>
      <point x="767" y="250"/>
      <point x="739" y="295"/>
      <point x="650" y="364" type="curve"/>
      <point x="664" y="421"/>
      <point x="671" y="472"/>
      <point x="671" y="515" type="curve" smooth="yes"/>
      <point x="671" y="616"/>
      <point x="619" y="674"/>
      <point x="531" y="674" type="curve" smooth="yes"/>
      <point x="457" y="674"/>
      <point x="405" y="622"/>
      <point x="405" y="540" type="curve" smooth="yes"/>
      <point x="405" y="470"/>
      <point x="443" y="414"/>
      <point x="571" y="336" type="curve"/>
      <point x="536" y="163"/>
      <point x="457" y="69"/>
      <point x="334" y="69" type="curve" smooth="yes"/>
      <point x="190" y="69"/>
      <point x="105" y="173"/>
      <point x="105" y="362" type="curve" smooth="yes"/>
      <point x="105" y="392" type="line"/>
      <point x="132" y="374"/>
      <point x="166" y="365"/>
      <point x="206" y="365" type="curve" smooth="yes"/>
      <point x="287" y="365"/>
      <point x="339" y="426"/>
      <point x="339" y="518" type="curve" smooth="yes"/>
      <point x="339" y="614"/>
      <point x="288" y="675"/>
      <point x="204" y="675" type="curve" smooth="yes"/>
      <point x="93" y="675"/>
      <point x="38" y="566"/>
      <point x="38" y="362" type="curve" smooth="yes"/>
      <point x="38" y="125"/>
      <point x="148" y="-11"/>
    </contour>
    <contour>
      <point x="201" y="443" type="curve" smooth="yes"/>
      <point x="168" y="443"/>
      <point x="140" y="452"/>
      <point x="116" y="471" type="curve"/>
      <point x="124" y="556"/>
      <point x="152" y="597"/>
      <point x="205" y="597" type="curve" smooth="yes"/>
      <point x="245" y="597"/>
      <point x="270" y="570"/>
      <point x="270" y="518" type="curve" smooth="yes"/>
      <point x="270" y="473"/>
      <point x="246" y="443"/>
    </contour>
    <contour>
      <point x="949" y="-171" type="curve" smooth="yes"/>
      <point x="1039" y="-171"/>
      <point x="1111" y="-92"/>
      <point x="1111" y="4" type="curve" smooth="yes"/>
      <point x="1111" y="101"/>
      <point x="1039" y="174"/>
      <point x="949" y="174" type="curve" smooth="yes"/>
      <point x="859" y="174"/>
      <point x="786" y="97"/>
      <point x="786" y="1" type="curve" smooth="yes"/>
      <point x="786" y="-95"/>
      <point x="859" y="-171"/>
    </contour>
    <contour>
      <point x="949" y="-91" type="curve" smooth="yes"/>
      <point x="894" y="-91"/>
      <point x="855" y="-57"/>
      <point x="855" y="6" type="curve" smooth="yes"/>
      <point x="855" y="64"/>
      <point x="893" y="96"/>
      <point x="949" y="96" type="curve" smooth="yes"/>
      <point x="1007" y="96"/>
      <point x="1042" y="59"/>
      <point x="1042" y="6" type="curve" smooth="yes"/>
      <point x="1042" y="-56"/>
      <point x="1004" y="-91"/>
    </contour>
    <contour>
      <point x="585" y="406" type="curve"/>
      <point x="514" y="446"/>
      <point x="479" y="487"/>
      <point x="479" y="536" type="curve" smooth="yes"/>
      <point x="479" y="572"/>
      <point x="505" y="596"/>
      <point x="536" y="596" type="curve" smooth="yes"/>
      <point x="579" y="596"/>
      <point x="597" y="572"/>
      <point x="597" y="515" type="curve" smooth="yes"/>
      <point x="597" y="473"/>
      <point x="593" y="437"/>
    </contour>
  </outline>
</glyph>
